<svg width="230" height="151" viewBox="0 0 230 151" fill="none" xmlns="http://www.w3.org/2000/svg">
<g clip-path="url(#clip0_2_3095)">
<path d="M230 97.7342H0L23.849 75.2512H205.938L230 97.7342Z" fill="#685443"/>
<path d="M230 97.7344H0V109.146H230V97.7344Z" fill="#443931"/>
<path d="M32.7941 109.146H20.8198V150.773H32.7941V109.146Z" fill="#4F4138"/>
<path d="M51.8791 109.146H42.3367V139.744H51.8791V109.146Z" fill="#3F3329"/>
<path d="M188.019 109.146H178.633V139.531H188.019V109.146Z" fill="#3F3329"/>
<path d="M209.763 109.146H197.732V151.014H209.763V109.146Z" fill="#4F4138"/>
<path d="M51.8791 0H42.3367V75.2513H51.8791V0Z" fill="#3F3329"/>
<path d="M188.104 0H178.562V75.2513H188.104V0Z" fill="#3F3329"/>
<path d="M206.549 54.4595H22.5833V66.0278H206.549V54.4595Z" fill="#584837"/>
<path d="M206.549 40.262H22.5833V51.8303H206.549V40.262Z" fill="#584837"/>
<path d="M206.976 26.0502H23.01V37.6185H206.976V26.0502Z" fill="#584837"/>
<path d="M207.118 11.8526H23.1521V23.421H207.118V11.8526Z" fill="#584837"/>
</g>
<defs>
<clipPath id="clip0_2_3095">
<rect width="230" height="151" fill="white"/>
</clipPath>
</defs>
</svg>
