<svg width="1757" height="476" viewBox="0 0 1757 476" fill="none" xmlns="http://www.w3.org/2000/svg">
<path d="M1245.5 99H1249.5L1295.5 323H1287.5L1245.5 99Z" fill="#4F4F4F"/>
<path d="M0.0850894 357.5L1035.59 95.6422V100.642L0.0850894 370V357.5Z" fill="#4F4F4F"/>
<path fill-rule="evenodd" clip-rule="evenodd" d="M1315.08 476H0V370.005L1037.02 99H1245.68L1315.08 476Z" fill="#C4C4C4"/>
<path fill-rule="evenodd" clip-rule="evenodd" d="M1710.79 476H1265.93C1235.12 460.595 1214 428.988 1214 392.5C1214 340.861 1256.31 299 1308.5 299C1329.7 299 1349.26 305.905 1365.03 317.566C1373.7 278.009 1409.12 248.389 1451.5 248.389C1482.3 248.389 1509.43 264.034 1525.28 287.768C1540.53 275.644 1559.91 268.389 1581 268.389C1616.74 268.389 1647.57 289.224 1661.72 319.281C1664.12 319.095 1666.55 319 1669 319C1717.6 319 1757 356.384 1757 402.5C1757 434.263 1738.31 461.884 1710.79 476Z" fill="#4D5932"/>
<g clip-path="url(#clip0_3_68)">
<path d="M670 111.346H440L463.849 88.8626H645.938L670 111.346Z" fill="#685443"/>
<path d="M670 111.346H440V122.758H670V111.346Z" fill="#443931"/>
<path d="M472.794 122.758H460.82V164.384H472.794V122.758Z" fill="#4F4138"/>
<path d="M491.879 122.758H482.337V153.356H491.879V122.758Z" fill="#3F3329"/>
<path d="M628.019 122.758H618.633V153.142H628.019V122.758Z" fill="#3F3329"/>
<path d="M649.763 122.758H637.732V164.626H649.763V122.758Z" fill="#4F4138"/>
<path d="M491.879 13.6113H482.337V88.8626H491.879V13.6113Z" fill="#3F3329"/>
<path d="M628.104 13.6113H618.562V88.8626H628.104V13.6113Z" fill="#3F3329"/>
<path d="M646.549 68.0708H462.583V79.6392H646.549V68.0708Z" fill="#584837"/>
<path d="M646.549 53.8732H462.583V65.4416H646.549V53.8732Z" fill="#584837"/>
<path d="M646.976 39.6615H463.01V51.2298H646.976V39.6615Z" fill="#584837"/>
<path d="M647.118 25.4639H463.152V37.0323H647.118V25.4639Z" fill="#584837"/>
</g>
<rect x="9" y="77" width="302" height="65" rx="26.5" fill="#4D5932"/>
<ellipse cx="126" cy="54.5" rx="55" ry="54.5" fill="#4D5932"/>
<ellipse cx="126" cy="86.5" rx="55" ry="54.5" fill="#4D5932"/>
<ellipse cx="206" cy="67.5" rx="55" ry="54.5" fill="#4D5932"/>
<ellipse cx="284" cy="94" rx="49" ry="48" fill="#4D5932"/>
<path fill-rule="evenodd" clip-rule="evenodd" d="M0 123.97C9.97531 135.04 24.4249 142 40.5 142C70.5995 142 95 117.6 95 87.5C95 57.4005 70.5995 33 40.5 33C24.4249 33 9.97531 39.9596 0 51.0301V123.97Z" fill="#4D5932"/>
<defs>
<clipPath id="clip0_3_68">
<rect width="230" height="151" fill="white" transform="translate(440 13.6113)"/>
</clipPath>
</defs>
</svg>
