<svg width="1921" height="482" viewBox="0 0 1921 482" fill="none" xmlns="http://www.w3.org/2000/svg">
<ellipse cx="118" cy="58" rx="70" ry="58" fill="#4D5932"/>
<ellipse cx="1582.53" cy="344.815" rx="98.0496" ry="89.2498" fill="#4D5932"/>
<ellipse cx="99.6003" cy="88.7285" rx="60.9348" ry="55.2741" fill="#4D5932"/>
<ellipse cx="219.5" cy="72.5" rx="69.5" ry="58.5" fill="#4D5932"/>
<ellipse cx="1726.01" cy="365.099" rx="98.6036" ry="89.2498" fill="#4D5932"/>
<ellipse cx="281.5" cy="99.5" rx="62.5" ry="51.5" fill="#4D5932"/>
<path d="M643.582 112.913H388.764L415.186 90.1105H616.923L643.582 112.913Z" fill="#685443"/>
<path d="M643.582 112.913H388.764V124.487H643.582V112.913Z" fill="#443931"/>
<path d="M425.097 124.487H411.831V166.705H425.097V124.487Z" fill="#4F4138"/>
<path d="M446.241 124.487H435.669V155.52H446.241V124.487Z" fill="#3F3329"/>
<path d="M597.071 124.487H586.672V155.303H597.071V124.487Z" fill="#3F3329"/>
<path d="M621.161 124.487H607.832V166.95H621.161V124.487Z" fill="#4F4138"/>
<path d="M446.241 13.7904H435.669V90.1105H446.241V13.7904Z" fill="#3F3329"/>
<path d="M597.166 13.7904H586.594V90.1105H597.166V13.7904Z" fill="#3F3329"/>
<path d="M617.601 69.0234H413.784V80.7561H617.601V69.0234Z" fill="#584837"/>
<path d="M617.601 54.6243H413.784V66.3569H617.601V54.6243Z" fill="#584837"/>
<path fill-rule="evenodd" clip-rule="evenodd" d="M5.00098 143.239C14.9548 147.895 26.4215 150.547 38.6267 150.547C76.8205 150.547 107.783 124.573 107.783 92.5329C107.783 60.4927 76.8205 34.5189 38.6267 34.5189C26.4215 34.5189 14.9548 37.1713 5.00098 41.8264V143.239Z" fill="#4D5932"/>
<path d="M1342.5 104.055H1348.5L1403 331.236H1391L1342.5 104.055Z" fill="#4F4F4F"/>
<path fill-rule="evenodd" clip-rule="evenodd" d="M5 150.547H303.343C317.978 150.547 329.843 138.682 329.843 124.047V107.856C329.843 93.2204 317.979 81.356 303.343 81.356H5V150.547Z" fill="#4D5932"/>
<path fill-rule="evenodd" clip-rule="evenodd" d="M1126 104.055H1342.5L1423.69 481.338H0.996582V371.337L1126 104.055Z" fill="#8D8D80"/>
<path fill-rule="evenodd" clip-rule="evenodd" d="M1481 481.338C1509.77 464.437 1528.8 435.093 1528.8 401.723C1528.8 349.351 1481.93 306.895 1424.1 306.895C1366.28 306.895 1319.41 349.351 1319.41 401.723C1319.41 435.093 1338.44 464.437 1367.2 481.338H1481Z" fill="#4D5932"/>
<path fill-rule="evenodd" clip-rule="evenodd" d="M1400.19 380.312C1385.56 380.312 1373.69 392.176 1373.69 406.812V460.303C1373.69 468.874 1377.76 476.494 1384.07 481.338H1868.52C1874.83 476.494 1878.9 468.874 1878.9 460.303V406.812C1878.9 392.176 1867.04 380.312 1852.4 380.312H1400.19Z" fill="#4D5932"/>
<path fill-rule="evenodd" clip-rule="evenodd" d="M1879.27 481.338C1904.5 466.031 1921 440.622 1921 411.865C1921 365.094 1877.35 327.179 1823.5 327.179C1769.66 327.179 1726.01 365.094 1726.01 411.865C1726.01 440.622 1742.51 466.031 1767.74 481.338H1879.27Z" fill="#4D5932"/>
<path d="M5 364.342L1134 99V104L5 372.962V364.342Z" fill="#4F4F4F"/>
<g clip-path="url(#clip0_230_6)">
<path d="M616.909 39.735H412.387V51.5083H616.909V39.735Z" fill="#584837"/>
<path d="M617.067 25.2859H412.545V37.0592H617.067V25.2859Z" fill="#584837"/>
</g>
<defs>
<clipPath id="clip0_230_6">
<rect width="255.7" height="153.675" fill="white" transform="translate(386.806 13.2234)"/>
</clipPath>
</defs>
</svg>
