<svg width="1132" height="396" viewBox="0 0 1132 396" fill="none" xmlns="http://www.w3.org/2000/svg">
<circle cx="106.537" cy="56" r="56" fill="#4D5932"/>
<circle cx="106.537" cy="89" r="56" fill="#4D5932"/>
<circle cx="188.537" cy="69" r="56" fill="#4D5932"/>
<ellipse cx="238.537" cy="95.5" rx="50" ry="49.5" fill="#4D5932"/>
<path d="M581.537 107.789H382.537L403.172 88.2842H560.718L581.537 107.789Z" fill="#685443"/>
<path d="M581.537 107.789H382.537V117.69H581.537V107.789Z" fill="#443931"/>
<path d="M410.911 117.69H400.551V153.803H410.911V117.69Z" fill="#4F4138"/>
<path d="M427.424 117.69H419.168V144.235H427.424V117.69Z" fill="#3F3329"/>
<path d="M545.215 117.69H537.094V144.05H545.215V117.69Z" fill="#3F3329"/>
<path d="M564.028 117.69H553.618V154.012H564.028V117.69Z" fill="#4F4138"/>
<path d="M427.424 23H419.168V88.2842H427.424V23Z" fill="#3F3329"/>
<path d="M545.289 23H537.032V88.2842H545.289V23Z" fill="#3F3329"/>
<path d="M561.247 70.2463H402.076V80.2825H561.247V70.2463Z" fill="#584837"/>
<rect x="17" y="105" width="1024" height="291" fill="#364634"/>
<path d="M762.537 105H976.352L1041 396H17V377L762.537 105Z" fill="#8D8D80"/>
<circle cx="106.537" cy="89" r="56" fill="#4D5932"/>
<circle cx="188.537" cy="69" r="56" fill="#4D5932"/>
<ellipse cx="238.537" cy="95.5" rx="50" ry="49.5" fill="#4D5932"/>
<path d="M581.537 107.789H382.537L403.172 88.2842H560.718L581.537 107.789Z" fill="#685443"/>
<path d="M581.537 107.789H382.537V117.69H581.537V107.789Z" fill="#443931"/>
<path d="M410.911 117.69H400.551V153.803H410.911V117.69Z" fill="#4F4138"/>
<path d="M427.424 117.69H419.168V144.235H427.424V117.69Z" fill="#3F3329"/>
<path d="M545.215 117.69H537.094V144.05H545.215V117.69Z" fill="#3F3329"/>
<path d="M564.028 117.69H553.618V154.012H564.028V117.69Z" fill="#4F4138"/>
<path d="M427.424 23H419.168V88.2842H427.424V23Z" fill="#3F3329"/>
<path d="M545.289 23H537.032V88.2842H545.289V23Z" fill="#3F3329"/>
<path d="M561.247 70.2463H402.076V80.2825H561.247V70.2463Z" fill="#584837"/>
<path d="M976.027 105.5L980.527 105.5L1041 326.998L1041 396L976.027 105.5Z" fill="#4F4F4F"/>
<path d="M17.0073 370L759.782 104.999L760.181 110.404L17.0073 378.5L17.0073 370Z" fill="#4F4F4F"/>
<path fill-rule="evenodd" clip-rule="evenodd" d="M17 138.852C24.6572 142.782 33.3379 145 42.5371 145C73.4648 145 98.5371 119.928 98.5371 89C98.5371 58.072 73.4648 33 42.5371 33C33.3379 33 24.6572 35.218 17 39.1484V138.852Z" fill="#4D5932"/>
<path fill-rule="evenodd" clip-rule="evenodd" d="M17 145H251.037C265.673 145 277.537 133.135 277.537 118.5V104.5C277.537 89.8645 265.673 78 251.037 78H17V145Z" fill="#4D5932"/>
</svg>
