<?xml version="1.0" encoding="utf-8"?>
<!-- Generator: Adobe Illustrator 26.0.1, SVG Export Plug-In . SVG Version: 6.00 Build 0)  -->
<svg version="1.1" id="Layer_1" xmlns="http://www.w3.org/2000/svg" xmlns:xlink="http://www.w3.org/1999/xlink" x="0px" y="0px"
	 viewBox="0 0 1634.1 399.5" style="enable-background:new 0 0 1634.1 399.5;" xml:space="preserve">
<style type="text/css">
	.st0{fill:#4F4F4F;}
	.st1{fill-rule:evenodd;clip-rule:evenodd;fill:#8D8D80;}
	.st2{fill-rule:evenodd;clip-rule:evenodd;fill:#4D5932;}
	.st3{clip-path:url(#SVGID_00000093170143606195701310000003675344701712312998_);}
	.st4{fill:#685443;}
	.st5{fill:#443931;}
	.st6{fill:#4F4138;}
	.st7{fill:#3F3329;}
	.st8{fill:#584837;}
	.st9{fill:#4D5932;}
</style>
<path class="st0" d="M1158.4,82.7h3.7l42.8,188.2h-7.4L1158.4,82.7z"/>
<path class="st0" d="M0.1,299.9l963.1-220V84L0.1,310.4V299.9z"/>
<path class="st1" d="M1223.1,399.5H0v-89.1L964.5,82.7h194.1L1223.1,399.5z"/>
<path class="st2" d="M1591.1,399.5h-413.7c-28.7-12.9-48.3-39.5-48.3-70.2c0-43.4,39.4-78.6,87.9-78.6c19.7,0,37.9,5.8,52.6,15.6
	c8.1-33.2,41-58.1,80.4-58.1c28.6,0,53.9,13.1,68.6,33.1c14.2-10.2,32.2-16.3,51.8-16.3c33.2,0,61.9,17.5,75.1,42.8
	c2.2-0.2,4.5-0.2,6.8-0.2c45.2,0,81.8,31.4,81.8,70.2C1634.1,364.4,1616.7,387.6,1591.1,399.5z"/>
<g>
	<defs>
		<rect id="SVGID_1_" x="409.2" y="10.9" width="213.9" height="126.9"/>
	</defs>
	<clipPath id="SVGID_00000170997948240828193470000006251351847644180912_">
		<use xlink:href="#SVGID_1_"  style="overflow:visible;"/>
	</clipPath>
	<g style="clip-path:url(#SVGID_00000170997948240828193470000006251351847644180912_);">
		<path class="st4" d="M623.1,93H409.2l22.2-18.9h169.4L623.1,93z"/>
		<path class="st5" d="M623.1,93H409.2v9.6h213.9V93z"/>
		<path class="st6" d="M439.7,102.6h-11.1v35h11.1V102.6z"/>
		<path class="st7" d="M457.5,102.6h-8.9v25.7h8.9V102.6z"/>
		<path class="st7" d="M584.1,102.6h-8.7v25.5h8.7V102.6z"/>
		<path class="st6" d="M604.3,102.6h-11.2v35.2h11.2V102.6z"/>
		<path class="st7" d="M457.5,10.9h-8.9v63.2h8.9V10.9z"/>
		<path class="st7" d="M584.2,10.9h-8.9v63.2h8.9V10.9z"/>
		<path class="st8" d="M601.3,56.7H430.2v9.7h171.1V56.7z"/>
		<path class="st8" d="M601.3,44.8H430.2v9.7h171.1V44.8z"/>
		<path class="st8" d="M601.7,32.8H430.6v9.7h171.1V32.8z"/>
		<path class="st8" d="M601.9,20.9H430.8v9.7h171.1V20.9z"/>
	</g>
</g>
<path class="st9" d="M33,64.2h231.6c13.6,0,24.6,10,24.6,22.3v10.1c0,12.3-11,22.3-24.6,22.3H33c-13.6,0-24.6-10-24.6-22.3V86.5
	C8.4,74.2,19.4,64.2,33,64.2z"/>
<ellipse class="st9" cx="117.2" cy="45.3" rx="51.2" ry="45.8"/>
<ellipse class="st9" cx="117.2" cy="72.2" rx="51.2" ry="45.8"/>
<ellipse class="st9" cx="191.6" cy="56.2" rx="51.2" ry="45.8"/>
<ellipse class="st9" cx="264.1" cy="78.5" rx="45.6" ry="40.3"/>
<path class="st2" d="M0,103.7c9.3,9.3,22.7,15.2,37.7,15.2c28,0,50.7-20.5,50.7-45.8c0-25.3-22.7-45.8-50.7-45.8
	c-15,0-28.4,5.8-37.7,15.2V103.7z"/>
</svg>
