<svg width="1740" height="483" viewBox="0 0 1740 483" fill="none" xmlns="http://www.w3.org/2000/svg">
<ellipse cx="89.3594" cy="55.854" rx="55.2222" ry="55.4653" fill="#4D5932"/>
<ellipse cx="1433.27" cy="345.393" rx="88.8575" ry="89.5587" fill="#4D5932"/>
<ellipse cx="89.3594" cy="88.4208" rx="55.2222" ry="55.4653" fill="#4D5932"/>
<ellipse cx="169.683" cy="69.0842" rx="55.2222" ry="55.4653" fill="#4D5932"/>
<ellipse cx="1563.29" cy="365.747" rx="89.3595" ry="89.5587" fill="#4D5932"/>
<ellipse cx="218.881" cy="95.0359" rx="49.1979" ry="48.8502" fill="#4D5932"/>
<path d="M582.343 112.689H351.414L375.359 89.8075H558.184L582.343 112.689Z" fill="#685443"/>
<path d="M582.343 112.689H351.414V124.303H582.343V112.689Z" fill="#443931"/>
<path d="M384.341 124.303H372.318V166.667H384.341V124.303Z" fill="#4F4138"/>
<path d="M403.503 124.303H393.922V155.443H403.503V124.303Z" fill="#3F3329"/>
<path d="M540.192 124.303H530.769V155.226H540.192V124.303Z" fill="#3F3329"/>
<path d="M562.024 124.303H549.944V166.912H562.024V124.303Z" fill="#4F4138"/>
<path d="M403.503 13.2234H393.922V89.8075H403.503V13.2234Z" fill="#3F3329"/>
<path d="M540.278 13.2234H530.697V89.8075H540.278V13.2234Z" fill="#3F3329"/>
<path d="M558.798 68.6475H374.089V80.4207H558.798V68.6475Z" fill="#584837"/>
<path d="M558.798 54.1985H374.089V65.9718H558.798V54.1985Z" fill="#584837"/>
<path d="M0 364.988L1017.09 99.3647V104.453L0 373.638V364.988Z" fill="#4F4F4F"/>
<path fill-rule="evenodd" clip-rule="evenodd" d="M0.000488281 136.899C7.87656 141.35 16.9497 143.886 26.6072 143.886C56.8283 143.886 81.3274 119.053 81.3274 88.4208C81.3274 57.7881 56.8283 32.9554 26.6072 32.9554C16.9497 32.9554 7.87656 35.4913 0.000488281 39.942V136.899Z" fill="#4D5932"/>
<path d="M1224.93 103.8H1228.94L1275.13 331.767H1267.1L1224.93 103.8Z" fill="#4F4F4F"/>
<path fill-rule="evenodd" clip-rule="evenodd" d="M0 143.886H230.534C245.17 143.886 257.034 132.022 257.034 117.386V104.235C257.034 89.5993 245.17 77.7349 230.534 77.7349H0V143.886Z" fill="#4D5932"/>
<path fill-rule="evenodd" clip-rule="evenodd" d="M1017.11 103.8H1226.61L1295.37 482.389H0V373.221L1017.11 103.8Z" fill="#8D8D80"/>
<path fill-rule="evenodd" clip-rule="evenodd" d="M1341.25 482.389C1367.32 465.429 1384.57 435.984 1384.57 402.498C1384.57 349.945 1342.09 307.342 1289.69 307.342C1237.29 307.342 1194.81 349.945 1194.81 402.498C1194.81 435.984 1212.05 465.429 1238.12 482.389H1341.25Z" fill="#4D5932"/>
<path fill-rule="evenodd" clip-rule="evenodd" d="M1270.5 381.013C1255.87 381.013 1244 392.877 1244 407.513V461.373C1244 469.932 1248.06 477.544 1254.36 482.389H1691.49C1697.79 477.544 1701.85 469.932 1701.85 461.373V407.513C1701.85 392.877 1689.98 381.013 1675.35 381.013H1270.5Z" fill="#4D5932"/>
<path fill-rule="evenodd" clip-rule="evenodd" d="M1702.18 482.389C1725.05 467.029 1740 441.532 1740 412.675C1740 365.743 1700.44 327.696 1651.64 327.696C1602.85 327.696 1563.29 365.743 1563.29 412.675C1563.29 441.532 1578.24 467.029 1601.11 482.389H1702.18Z" fill="#4D5932"/>
<path d="M559.226 39.735H374.517V51.5083H559.226V39.735Z" fill="#584837"/>
<path d="M559.369 25.2859H374.66V37.0592H559.369V25.2859Z" fill="#584837"/>
</svg>
