<svg width="1854" height="152" viewBox="0 0 1854 152" fill="none" xmlns="http://www.w3.org/2000/svg">
<rect x="4" y="7.38867" width="198" height="143" fill="#6F005D"/>
<rect x="212" y="7.05615" width="198" height="143" fill="#948BFF"/>
<rect x="417" y="7" width="198" height="143" fill="#948BFF"/>
<rect x="624" y="7.38867" width="198" height="143" fill="#948BFF"/>
<rect x="830" y="6.67578" width="198" height="143" fill="#948BFF"/>
<rect x="1036" y="7.38867" width="198" height="143" fill="#948BFF"/>
<rect x="1238" y="7.38867" width="198" height="143" fill="#948BFF"/>
<rect x="1448" y="7.38867" width="198" height="143" fill="#948BFF"/>
<path d="M200 148.389V8.21419C189.685 5.04282 165.446 0.22234 151.006 6.31137C136.565 12.4004 177.652 103.567 200 148.389Z" fill="#6F005D" stroke="#6E005D"/>
<rect x="1653" y="7" width="198" height="143" fill="#948BFF"/>
<path d="M408 145.67V7.88367C397.685 4.7123 323.254 -4.98344 322.5 10.6701C316 145.667 305 153.67 408 145.67Z" fill="#6F005D" stroke="#6E005D"/>
<path d="M615 147.281V9.49411C604.685 6.32274 525.5 -0.0577841 525.5 13.1113C525.5 150.35 558.5 153.111 615 147.281Z" fill="#6F005D" stroke="#6E005D"/>
<path d="M820 143.5V8.36128C809.685 5.18991 735.5 -2.83835 735.5 10.3308C735.5 147.57 767 124.5 820 143.5Z" fill="#6F005D" stroke="#6E005D"/>
<path d="M1027 144V9.60152C1016.68 6.44753 935.422 -9.15695 942.428 11.5602C986.18 140.938 978.458 113.667 1027 144Z" fill="#6F005D" stroke="#6E005D"/>
<path d="M1235 145V9.66167C1227.11 6.48562 1164.97 -9.22797 1170.33 11.6341C1203.78 141.917 1197.88 114.454 1235 145Z" fill="#6F005D" stroke="#6E005D"/>
<path d="M1437 145V9.66167C1430.81 6.48562 1382.05 -9.22797 1386.26 11.6341C1412.51 141.917 1407.88 114.454 1437 145Z" fill="#6F005D" stroke="#6E005D"/>
<path d="M1647 145V9.66167C1643.48 6.48562 1615.76 -9.22797 1618.15 11.6341C1633.07 141.917 1630.44 114.454 1647 145Z" fill="#6F005D" stroke="#6E005D"/>
<path d="M11 151V5.99191C21.1162 2.71119 44.8893 -2.27552 59.052 4.02348C73.2147 10.3225 32.9185 104.632 11 151Z" fill="#6F005D" stroke="#6E005D"/>
<path d="M820 148.389V8.21419C809.685 5.04282 785.446 0.22234 771.006 6.31137C756.565 12.4004 797.652 103.567 820 148.389Z" fill="#6F005D" stroke="#6E005D"/>
<path d="M327.53 7.34494C342.272 13.6439 331.815 98.2999 309 144.667H214.643L211 7.34518C221.53 4.06446 312.788 1.04595 327.53 7.34494Z" fill="#6F005D" stroke="#6E005D"/>
<path d="M534.53 8.95627C549.272 15.2553 517.315 97.2437 494.5 143.611L421.643 146.279L418 8.95651C428.53 5.67578 519.788 2.65727 534.53 8.95627Z" fill="#6F005D" stroke="#6E005D"/>
<path d="M739.53 7.82346C754.272 14.1224 700.315 98.7784 677.5 145.146H626.643L623 7.8237C633.53 4.54297 724.788 1.52446 739.53 7.82346Z" fill="#6F005D" stroke="#6E005D"/>
<path d="M926.644 6.67771C941.714 12.9767 880.455 97.6323 857.133 144H831.724L828 6.67733C838.764 3.3966 911.575 0.378701 926.644 6.67771Z" fill="#6F005D" stroke="#6E005D"/>
<path d="M1112.16 7.67771C1123.94 13.9767 1076.03 98.6323 1057.79 145H1037.91L1035 7.67733C1043.42 4.3966 1100.37 1.3787 1112.16 7.67771Z" fill="#6F005D" stroke="#6E005D"/>
<path d="M1290.72 7.67771C1298.92 13.9767 1265.56 98.6323 1252.86 145H1239.03L1237 7.67733C1242.86 4.3966 1282.51 1.3787 1290.72 7.67771Z" fill="#6F005D" stroke="#6E005D"/>
<path d="M1475.32 7.67771C1479.65 13.9767 1462.06 98.6323 1455.37 145H1448.07L1447 7.67733C1450.09 4.3966 1471 1.3787 1475.32 7.67771Z" fill="#6F005D" stroke="#6E005D"/>
<path d="M420 150.614V5.60568C430.116 2.32496 457.529 6.5578 473 5.60553C473 5.60553 441.918 104.246 420 150.614Z" fill="#6F005D" stroke="#6E005D"/>
<path d="M627 151V5.99191C637.116 2.71119 660.889 -2.27552 675.052 4.02348C689.215 10.3225 648.918 104.632 627 151Z" fill="#6F005D" stroke="#6E005D"/>
<path d="M210 147V4H408V147H210Z" stroke="#DBDDE7" stroke-width="8"/>
<path d="M4 147V4H202V147H4Z" stroke="#DBDDE7" stroke-width="8"/>
<path d="M416 147V4H614V147H416Z" stroke="#DBDDE7" stroke-width="8"/>
<path d="M622 147V4H820V147H622Z" stroke="#DBDDE7" stroke-width="8"/>
<path d="M828 147V4H1026V147H828Z" stroke="#DBDDE7" stroke-width="8"/>
<path d="M1034 147V4H1232V147H1034Z" stroke="#DBDDE7" stroke-width="8"/>
<path d="M1240 147V4H1438V147H1240Z" stroke="#DBDDE7" stroke-width="8"/>
<path d="M62 5.38867V145.389M138 5.38867V145.389" stroke="#DBDDE7" stroke-width="8"/>
<path d="M1446 147V4H1644V147H1446Z" stroke="#DBDDE7" stroke-width="8"/>
<path d="M1652 147V4H1850V147H1652Z" stroke="#DBDDE7" stroke-width="8"/>
<path d="M270 5.05615V145.056M346 5.05615V145.056" stroke="#DBDDE7" stroke-width="8"/>
<path d="M475 5V145M551 5V145" stroke="#DBDDE7" stroke-width="8"/>
<path d="M682 5.38867V145.389M758 5.38867V145.389" stroke="#DBDDE7" stroke-width="8"/>
<path d="M888 4.67578V144.676M964 4.67578V144.676" stroke="#DBDDE7" stroke-width="8"/>
<path d="M1094 5.38867V145.389M1170 5.38867V145.389" stroke="#DBDDE7" stroke-width="8"/>
<path d="M1296 5.38867V145.389M1372 5.38867V145.389" stroke="#DBDDE7" stroke-width="8"/>
<path d="M1506 5.38867V145.389M1582 5.38867V145.389" stroke="#DBDDE7" stroke-width="8"/>
<path d="M1711 5V145M1787 5V145" stroke="#DBDDE7" stroke-width="8"/>
</svg>
