<svg width="1689" height="151" viewBox="0 0 1689 151" fill="none" xmlns="http://www.w3.org/2000/svg">
<rect x="1043" y="4" width="121" height="143" fill="#F6FF89"/>
<rect x="1173" y="3.87598" width="121" height="143" fill="#F6FF89"/>
<rect x="1303" y="3.87598" width="121" height="143" fill="#F6FF89"/>
<rect x="1433" y="3.87598" width="121" height="143" fill="#F6FF89"/>
<rect x="1563" y="4" width="121" height="143" fill="#F6FF89"/>
<path d="M1046 74.9986V7.99864C1060.67 5.83197 1088.7 2.8001 1117.5 8.0001C1146.3 13.2001 1084.67 54.832 1046 74.9986Z" fill="#F40076"/>
<path d="M1176 74.8736V7.87357C1190.67 5.7069 1183.7 -1.32402 1212.5 3.87598C1241.3 9.07598 1214.67 54.7069 1176 74.8736Z" fill="#F40076"/>
<path d="M1306 55V6.27177C1314.75 4.69598 1310.59 -0.417519 1327.77 3.36437C1344.94 7.14627 1329.06 40.333 1306 55Z" fill="#F40076"/>
<path d="M1436 37V4.82098C1440.83 3.78036 1438.53 0.403525 1448.01 2.901C1457.48 5.39848 1448.72 27.3143 1436 37Z" fill="#F40076"/>
<rect x="4" y="5" width="123" height="142" fill="#F40076"/>
<rect x="134" y="5" width="123" height="142" fill="#F40076"/>
<rect x="264" y="5" width="123" height="142" fill="#F40076"/>
<rect x="394" y="5" width="123" height="142" fill="#F40076"/>
<rect x="524" y="5" width="123" height="142" fill="#F40076"/>
<rect x="653.83" y="5" width="123" height="142" fill="#F40076"/>
<rect x="783" y="5" width="123" height="142" fill="#F40076"/>
<rect x="913" y="5" width="123" height="142" fill="#F40076"/>
<path d="M233.851 144.392C243.826 143.29 250.773 117.005 253 104V144.392C242.461 144.851 223.875 145.493 233.851 144.392Z" fill="#F6FF89" stroke="#F6FF89"/>
<path d="M363.851 144.392C373.826 143.29 380.773 117.005 383 104V144.392C372.461 144.851 353.875 145.493 363.851 144.392Z" fill="#F6FF89" stroke="#F6FF89"/>
<path d="M493.851 144.392C503.826 143.29 510.773 117.005 513 104V144.392C502.461 144.851 483.875 145.493 493.851 144.392Z" fill="#F6FF89" stroke="#F6FF89"/>
<path d="M882.851 144.392C892.826 143.29 899.773 117.005 902 104V144.392C891.461 144.851 872.875 145.493 882.851 144.392Z" fill="#F6FF89" stroke="#F6FF89"/>
<path d="M1012.85 144.392C1022.83 143.29 1029.77 117.005 1032 104V144.392C1021.46 144.851 1002.88 145.493 1012.85 144.392Z" fill="#F6FF89" stroke="#F6FF89"/>
<path d="M4 147V5H126V147H4Z" stroke="#DBDDE7" stroke-width="8"/>
<path d="M134 147V5H256V147H134Z" stroke="#DBDDE7" stroke-width="8"/>
<path d="M264 147V5H386V147H264Z" stroke="#DBDDE7" stroke-width="8"/>
<path d="M394 147V5H516V147H394Z" stroke="#DBDDE7" stroke-width="8"/>
<path d="M524 147V5H646V147H524Z" stroke="#DBDDE7" stroke-width="8"/>
<path d="M653.83 147V5H775.83V147H653.83Z" stroke="#DBDDE7" stroke-width="8"/>
<path d="M783 147V5H905V147H783Z" stroke="#DBDDE7" stroke-width="8"/>
<path d="M913 147V5H1035V147H913Z" stroke="#DBDDE7" stroke-width="8"/>
<path d="M1043 147V5H1165V147H1043Z" stroke="#DBDDE7" stroke-width="8"/>
<path d="M1173 146.876V4.87598H1295V146.876H1173Z" stroke="#DBDDE7" stroke-width="8"/>
<path d="M1303 146.876V4.87598H1425V146.876H1303Z" stroke="#DBDDE7" stroke-width="8"/>
<path d="M1433 146.876V4.87598H1555V146.876H1433Z" stroke="#DBDDE7" stroke-width="8"/>
<path d="M1563 147V5H1685V147H1563Z" stroke="#DBDDE7" stroke-width="8"/>
<path d="M63 9V44.3693M63 146V44.3693M63 44.3693H8" stroke="#DBDDE7" stroke-width="8"/>
<path d="M193 9V44.3693M193 146V44.3693M193 44.3693H138" stroke="#DBDDE7" stroke-width="8"/>
<path d="M323 9V44.3693M323 146V44.3693M323 44.3693H268" stroke="#DBDDE7" stroke-width="8"/>
<path d="M453 9V44.3693M453 146V44.3693M453 44.3693H398" stroke="#DBDDE7" stroke-width="8"/>
<path d="M583 9V44.3693M583 146V44.3693M583 44.3693H528" stroke="#DBDDE7" stroke-width="8"/>
<path d="M712.83 9V44.3693M712.83 146V44.3693M712.83 44.3693H657.83" stroke="#DBDDE7" stroke-width="8"/>
<path d="M842 9V44.3693M842 146V44.3693M842 44.3693H787" stroke="#DBDDE7" stroke-width="8"/>
<path d="M972 9V44.3693M972 146V44.3693M972 44.3693H917" stroke="#DBDDE7" stroke-width="8"/>
<path d="M1102 9V44.3693M1102 146V44.3693M1102 44.3693H1047" stroke="#DBDDE7" stroke-width="8"/>
<path d="M1232 8.87598V44.2453M1232 145.876V44.2453M1232 44.2453H1177" stroke="#DBDDE7" stroke-width="8"/>
<path d="M1362 8.87598V44.2453M1362 145.876V44.2453M1362 44.2453H1307" stroke="#DBDDE7" stroke-width="8"/>
<path d="M1492 8.87598V44.2453M1492 145.876V44.2453M1492 44.2453H1437" stroke="#DBDDE7" stroke-width="8"/>
<path d="M1622 9V44.3693M1622 146V44.3693M1622 44.3693H1567" stroke="#DBDDE7" stroke-width="8"/>
<rect x="134" y="5" width="123" height="142" fill="#F40076"/>
<rect x="264" y="5" width="123" height="142" fill="#F40076"/>
<rect x="394" y="5" width="123" height="142" fill="#F40076"/>
<rect x="524" y="5" width="123" height="142" fill="#F40076"/>
<rect x="653.83" y="5" width="123" height="142" fill="#F40076"/>
<rect x="783" y="5" width="123" height="142" fill="#F40076"/>
<rect x="913" y="5" width="123" height="142" fill="#F40076"/>
<path d="M233.851 144.392C243.826 143.29 250.773 117.005 253 104V144.392C242.461 144.851 223.875 145.493 233.851 144.392Z" fill="#F6FF89" stroke="#F6FF89"/>
<path d="M345.572 144.14C365.069 142.581 378.648 105.397 383 87V144.14C362.4 144.789 326.075 145.698 345.572 144.14Z" fill="#F6FF89" stroke="#F6FF89"/>
<path d="M445.978 143.709C480.892 141.372 505.207 85.5958 513 58V143.709C476.112 144.683 411.064 146.047 445.978 143.709Z" fill="#F6FF89" stroke="#F6FF89"/>
<path d="M553.347 143.235C600.05 140.037 632.575 63.746 643 26V143.235C593.656 144.567 506.644 146.432 553.347 143.235Z" fill="#F6FF89" stroke="#F6FF89"/>
<path d="M671.329 142.745C732.542 138.661 752.83 52.5 772.829 5.5V142.745C708.155 144.447 610.117 146.829 671.329 142.745Z" fill="#F6FF89" stroke="#F6FF89"/>
<path d="M785.36 141.344C778.643 135.172 867.804 36.7089 902 5L902 143.883C806.676 140.528 792.077 147.516 785.36 141.344Z" fill="#F6FF89" stroke="#F6FF89"/>
<path d="M915.892 124.416C920.335 119.889 997 48.5 1032 6V143.403C1005 153.514 933.778 145.81 919.883 143.403C905.989 140.997 911.449 128.944 915.892 124.416Z" fill="#F6FF89" stroke="#F6FF89"/>
<path d="M4 147V5H126V147H4Z" stroke="#DBDDE7" stroke-width="8"/>
<path d="M134 147V5H256V147H134Z" stroke="#DBDDE7" stroke-width="8"/>
<path d="M264 147V5H386V147H264Z" stroke="#DBDDE7" stroke-width="8"/>
<path d="M394 147V5H516V147H394Z" stroke="#DBDDE7" stroke-width="8"/>
<path d="M524 147V5H646V147H524Z" stroke="#DBDDE7" stroke-width="8"/>
<path d="M653.83 147V5H775.83V147H653.83Z" stroke="#DBDDE7" stroke-width="8"/>
<path d="M783 147V5H905V147H783Z" stroke="#DBDDE7" stroke-width="8"/>
<path d="M913 147V5H1035V147H913Z" stroke="#DBDDE7" stroke-width="8"/>
<path d="M1043 147V5H1165V147H1043Z" stroke="#DBDDE7" stroke-width="8"/>
<path d="M1173 146.876V4.87598H1295V146.876H1173Z" stroke="#DBDDE7" stroke-width="8"/>
<path d="M1303 146.876V4.87598H1425V146.876H1303Z" stroke="#DBDDE7" stroke-width="8"/>
<path d="M1433 146.876V4.87598H1555V146.876H1433Z" stroke="#DBDDE7" stroke-width="8"/>
<path d="M1563 147V5H1685V147H1563Z" stroke="#DBDDE7" stroke-width="8"/>
<path d="M63 9V44.3693M63 146V44.3693M63 44.3693H8" stroke="#DBDDE7" stroke-width="8"/>
<path d="M193 9V44.3693M193 146V44.3693M193 44.3693H138" stroke="#DBDDE7" stroke-width="8"/>
<path d="M323 9V44.3693M323 146V44.3693M323 44.3693H268" stroke="#DBDDE7" stroke-width="8"/>
<path d="M453 9V44.3693M453 146V44.3693M453 44.3693H398" stroke="#DBDDE7" stroke-width="8"/>
<path d="M583 9V44.3693M583 146V44.3693M583 44.3693H528" stroke="#DBDDE7" stroke-width="8"/>
<path d="M712.83 9V44.3693M712.83 146V44.3693M712.83 44.3693H657.83" stroke="#DBDDE7" stroke-width="8"/>
<path d="M842 9V44.3693M842 146V44.3693M842 44.3693H787" stroke="#DBDDE7" stroke-width="8"/>
<path d="M972 9V44.3693M972 146V44.3693M972 44.3693H917" stroke="#DBDDE7" stroke-width="8"/>
<path d="M1102 9V44.3693M1102 146V44.3693M1102 44.3693H1047" stroke="#DBDDE7" stroke-width="8"/>
<path d="M1232 8.87598V44.2453M1232 145.876V44.2453M1232 44.2453H1177" stroke="#DBDDE7" stroke-width="8"/>
<path d="M1362 8.87598V44.2453M1362 145.876V44.2453M1362 44.2453H1307" stroke="#DBDDE7" stroke-width="8"/>
<path d="M1492 8.87598V44.2453M1492 145.876V44.2453M1492 44.2453H1437" stroke="#DBDDE7" stroke-width="8"/>
<path d="M1622 9V44.3693M1622 146V44.3693M1622 44.3693H1567" stroke="#DBDDE7" stroke-width="8"/>
</svg>
