<svg width="1845" height="201" viewBox="0 0 1845 201" fill="none" xmlns="http://www.w3.org/2000/svg">
<rect x="5" y="5" width="197" height="141" fill="#F4F2B8"/>
<path d="M198 149.791V8.84157C178.372 6.67646 148.02 0.00790739 143.424 8.84158C138.828 17.6752 172.627 76.8262 195.128 103.024C197.521 102.158 200.011 101.335 190.819 104.973C181.627 108.61 171.309 135.501 167 149.791H198Z" fill="#883677" stroke="#883677"/>
<path d="M8 149.402L8 8.4529C27.6282 6.28778 57.9802 -0.380764 62.5761 8.4529C67.172 17.2866 33.3731 76.4375 10.8724 102.635C8.47874 101.769 5.9893 100.947 15.1811 104.584C24.3728 108.221 34.6914 135.112 39 149.402H8Z" fill="#883677" stroke="#883677"/>
<path d="M4 147.389V4.38867H201V147.389H4Z" stroke="#DBDDE7" stroke-width="8"/>
<path d="M63 5.38867V144.389M138 5.38867V144.389" stroke="#DBDDE7" stroke-width="8"/>
<rect y="151" width="76" height="50" fill="#DBDDE7"/>
<rect x="5" y="157" width="48" height="38" rx="5" fill="#252525"/>
<ellipse cx="26.5" cy="176" rx="19.5" ry="19" fill="#454545"/>
<line x1="26.5" y1="160" x2="26.5" y2="176" stroke="black"/>
<line x1="26.5" y1="177" x2="26.5" y2="193" stroke="black"/>
<line x1="43" y1="176.5" x2="27" y2="176.5" stroke="black"/>
<line x1="26" y1="176.5" x2="10" y2="176.5" stroke="black"/>
<rect x="209" y="1" width="198" height="143" fill="#F4F2B8"/>
<path d="M403 149.791V8.84157C383.372 6.67646 353.02 0.00790739 348.424 8.84158C343.828 17.6752 377.627 76.8262 400.128 103.024C402.521 102.158 405.011 101.335 395.819 104.973C386.627 108.61 376.309 135.501 372 149.791H403Z" fill="#883677" stroke="#883677"/>
<path d="M213 149.402V8.4529C232.628 6.28778 262.98 -0.380764 267.576 8.4529C272.172 17.2866 238.373 76.4375 215.872 102.635C213.479 101.769 210.989 100.947 220.181 104.584C229.373 108.221 239.691 135.112 244 149.402H213Z" fill="#883677" stroke="#883677"/>
<rect x="205" y="151" width="76" height="50" fill="#DBDDE7"/>
<rect x="210" y="157" width="48" height="38" rx="5" fill="#252525"/>
<ellipse cx="231.5" cy="176" rx="19.5" ry="19" fill="#454545"/>
<line x1="234.365" y1="160.25" x2="231.587" y2="176.007" stroke="black"/>
<line x1="231.413" y1="176.992" x2="228.635" y2="192.749" stroke="black"/>
<line x1="247.749" y1="179.365" x2="231.992" y2="176.587" stroke="black"/>
<line x1="231.008" y1="176.413" x2="215.251" y2="173.634" stroke="black"/>
<rect x="415" y="4.38867" width="198" height="143" fill="#F4F2B8"/>
<path d="M608 149.791V8.84157C588.372 6.67646 558.02 0.00790739 553.424 8.84158C548.828 17.6752 582.627 76.8262 605.128 103.024C607.521 102.158 610.011 101.335 600.819 104.973C591.627 108.61 581.309 135.501 577 149.791H608Z" fill="#883677" stroke="#883677"/>
<path d="M418 149.402V8.4529C437.628 6.28778 467.98 -0.380764 472.576 8.4529C477.172 17.2866 443.373 76.4375 420.872 102.635C418.479 101.769 415.989 100.947 425.181 104.584C434.373 108.221 444.691 135.112 449 149.402H418Z" fill="#883677" stroke="#883677"/>
<rect x="410" y="151" width="76" height="50" fill="#DBDDE7"/>
<rect x="415" y="157" width="48" height="38" rx="5" fill="#252525"/>
<ellipse cx="436.5" cy="176" rx="19.5" ry="19" fill="#454545"/>
<line x1="442.143" y1="160.995" x2="436.671" y2="176.03" stroke="black"/>
<line x1="436.329" y1="176.97" x2="430.857" y2="192.005" stroke="black"/>
<line x1="452.005" y1="182.143" x2="436.97" y2="176.671" stroke="black"/>
<line x1="436.03" y1="176.329" x2="420.995" y2="170.856" stroke="black"/>
<rect x="620" y="4.38867" width="198" height="143" fill="#F4F2B8"/>
<path d="M813 149.791V8.84157C793.372 6.67646 763.02 0.00790739 758.424 8.84158C753.828 17.6752 787.627 76.8262 810.128 103.024C812.521 102.158 815.011 101.335 805.819 104.973C796.627 108.61 786.309 135.501 782 149.791H813Z" fill="#883677" stroke="#883677"/>
<path d="M623 149.402V8.4529C642.628 6.28778 672.98 -0.380764 677.576 8.4529C682.172 17.2866 648.373 76.4375 625.872 102.635C623.479 101.769 620.989 100.947 630.181 104.584C639.373 108.221 649.691 135.112 654 149.402H623Z" fill="#883677" stroke="#883677"/>
<rect x="615" y="151" width="76" height="50" fill="#DBDDE7"/>
<rect x="620" y="157" width="48" height="38" rx="5" fill="#252525"/>
<ellipse cx="641.5" cy="176" rx="19.5" ry="19" fill="#454545"/>
<line x1="649.75" y1="162.21" x2="641.75" y2="176.067" stroke="black"/>
<line x1="641.25" y1="176.933" x2="633.25" y2="190.79" stroke="black"/>
<line x1="655.789" y1="184.75" x2="641.933" y2="176.75" stroke="black"/>
<line x1="641.067" y1="176.25" x2="627.211" y2="168.25" stroke="black"/>
<rect x="1030" y="4.38867" width="198" height="143" fill="#F4F2B8"/>
<path d="M1223 149.791V8.84157C1203.37 6.67646 1173.02 0.00790739 1168.42 8.84158C1163.83 17.6752 1197.63 76.8262 1220.13 103.024C1222.52 102.158 1225.01 101.335 1215.82 104.973C1206.63 108.61 1196.31 135.501 1192 149.791H1223Z" fill="#883677" stroke="#883677"/>
<path d="M1033 149.402V8.4529C1052.63 6.28778 1082.98 -0.380764 1087.58 8.4529C1092.17 17.2866 1058.37 76.4375 1035.87 102.635C1033.48 101.769 1030.99 100.947 1040.18 104.584C1049.37 108.221 1059.69 135.112 1064 149.402H1033Z" fill="#883677" stroke="#883677"/>
<rect x="1025" y="151" width="76" height="50" fill="#DBDDE7"/>
<rect x="1030" y="157" width="48" height="38" rx="5" fill="#252525"/>
<ellipse cx="1051.5" cy="176" rx="19.5" ry="19" fill="#454545"/>
<line x1="1064.14" y1="165.894" x2="1051.88" y2="176.178" stroke="black"/>
<line x1="1051.12" y1="176.821" x2="1038.86" y2="187.106" stroke="black"/>
<line x1="1062.11" y1="189.139" x2="1051.82" y2="176.883" stroke="black"/>
<line x1="1051.18" y1="176.117" x2="1040.89" y2="163.86" stroke="black"/>
<rect x="1235" y="4.38867" width="198" height="143" fill="#F4F2B8"/>
<path d="M1428 149.791V8.84157C1408.37 6.67646 1378.02 0.00790739 1373.42 8.84158C1368.83 17.6752 1402.63 76.8262 1425.13 103.024C1427.52 102.158 1430.01 101.335 1420.82 104.973C1411.63 108.61 1401.31 135.501 1397 149.791H1428Z" fill="#883677" stroke="#883677"/>
<path d="M1238 149.402V8.4529C1257.63 6.28778 1287.98 -0.380764 1292.58 8.4529C1297.17 17.2866 1263.37 76.4375 1240.87 102.635C1238.48 101.769 1235.99 100.947 1245.18 104.584C1254.37 108.221 1264.69 135.112 1269 149.402H1238Z" fill="#883677" stroke="#883677"/>
<rect x="1230" y="151" width="76" height="50" fill="#DBDDE7"/>
<rect x="1235" y="157" width="48" height="38" rx="5" fill="#252525"/>
<ellipse cx="1256.5" cy="176" rx="19.5" ry="19" fill="#454545"/>
<line x1="1270.79" y1="168.25" x2="1256.93" y2="176.25" stroke="black"/>
<line x1="1256.07" y1="176.75" x2="1242.21" y2="184.75" stroke="black"/>
<line x1="1264.75" y1="190.789" x2="1256.75" y2="176.933" stroke="black"/>
<line x1="1256.25" y1="176.067" x2="1248.25" y2="162.21" stroke="black"/>
<rect x="1440" y="4.38867" width="198" height="143" fill="#F4F2B8"/>
<path d="M1633 149.791V8.84157C1613.37 6.67646 1583.02 0.00790739 1578.42 8.84158C1573.83 17.6752 1607.63 76.8262 1630.13 103.024C1632.52 102.158 1635.01 101.335 1625.82 104.973C1616.63 108.61 1606.31 135.501 1602 149.791H1633Z" fill="#883677" stroke="#883677"/>
<path d="M1443 149.402V8.4529C1462.63 6.28778 1492.98 -0.380764 1497.58 8.4529C1502.17 17.2866 1468.37 76.4375 1445.87 102.635C1443.48 101.769 1440.99 100.947 1450.18 104.584C1459.37 108.221 1469.69 135.112 1474 149.402H1443Z" fill="#883677" stroke="#883677"/>
<rect x="1435" y="151" width="76" height="50" fill="#DBDDE7"/>
<rect x="1440" y="157" width="48" height="38" rx="5" fill="#252525"/>
<ellipse cx="1461.5" cy="176" rx="19.5" ry="19" fill="#454545"/>
<line x1="1477" y1="170.857" x2="1461.97" y2="176.329" stroke="black"/>
<line x1="1461.03" y1="176.671" x2="1446" y2="182.143" stroke="black"/>
<line x1="1467.14" y1="192.005" x2="1461.67" y2="176.97" stroke="black"/>
<line x1="1461.33" y1="176.03" x2="1455.86" y2="160.995" stroke="black"/>
<rect x="1645" y="4.38867" width="198" height="143" fill="#F4F2B8"/>
<path d="M1838 149.791V8.84157C1818.37 6.67646 1788.02 0.00790739 1783.42 8.84158C1778.83 17.6752 1812.63 76.8262 1835.13 103.024C1837.52 102.158 1840.01 101.335 1830.82 104.973C1821.63 108.61 1811.31 135.501 1807 149.791H1838Z" fill="#883677" stroke="#883677"/>
<path d="M1648 149.402V8.4529C1667.63 6.28778 1697.98 -0.380764 1702.58 8.4529C1707.17 17.2866 1673.37 76.4375 1650.87 102.635C1648.48 101.769 1645.99 100.947 1655.18 104.584C1664.37 108.221 1674.69 135.112 1679 149.402H1648Z" fill="#883677" stroke="#883677"/>
<rect x="1640" y="151" width="76" height="50" fill="#DBDDE7"/>
<rect x="1645" y="157" width="48" height="38" rx="5" fill="#252525"/>
<ellipse cx="1666.5" cy="176" rx="19.5" ry="19" fill="#454545"/>
<line x1="1682.75" y1="173.634" x2="1666.99" y2="176.413" stroke="black"/>
<line x1="1666.01" y1="176.587" x2="1650.25" y2="179.365" stroke="black"/>
<line x1="1669.37" y1="192.749" x2="1666.59" y2="176.992" stroke="black"/>
<line x1="1666.41" y1="176.007" x2="1663.63" y2="160.25" stroke="black"/>
<rect x="825" y="4.38867" width="198" height="143" fill="#F4F2B8"/>
<path d="M1018 149.791V8.84157C998.372 6.67646 968.02 0.00790739 963.424 8.84158C958.828 17.6752 992.627 76.8262 1015.13 103.024C1017.52 102.158 1020.01 101.335 1010.82 104.973C1001.63 108.61 991.309 135.501 987 149.791H1018Z" fill="#883677" stroke="#883677"/>
<path d="M828 149.402V8.4529C847.628 6.28778 877.98 -0.380764 882.576 8.4529C887.172 17.2866 853.373 76.4375 830.872 102.635C828.479 101.769 825.989 100.947 835.181 104.584C844.373 108.221 854.691 135.112 859 149.402H828Z" fill="#883677" stroke="#883677"/>
<rect x="820" y="151" width="76" height="50" fill="#DBDDE7"/>
<rect x="825" y="157" width="48" height="38" rx="5" fill="#252525"/>
<ellipse cx="846.5" cy="176" rx="19.5" ry="19" fill="#454545"/>
<line x1="857.106" y1="163.86" x2="846.821" y2="176.117" stroke="black"/>
<line x1="846.179" y1="176.882" x2="835.894" y2="189.139" stroke="black"/>
<line x1="859.14" y1="187.106" x2="846.883" y2="176.821" stroke="black"/>
<line x1="846.117" y1="176.178" x2="833.86" y2="165.894" stroke="black"/>
<path d="M824 147.389V4.38867H1021V147.389H824Z" stroke="#DBDDE7" stroke-width="8"/>
<path d="M678 5.38867V144.389M753 5.38867V144.389" stroke="#DBDDE7" stroke-width="8"/>
<path d="M473 5.38867V144.389M548 5.38867V144.389" stroke="#DBDDE7" stroke-width="8"/>
<path d="M619 147.389V4.38867H816V147.389H619Z" stroke="#DBDDE7" stroke-width="8"/>
<path d="M414 147.389V4.38867H611V147.389H414Z" stroke="#DBDDE7" stroke-width="8"/>
<path d="M209 147.389V4.38867H406V147.389H209Z" stroke="#DBDDE7" stroke-width="8"/>
<path d="M883 5.38867V144.389M958 5.38867V144.389" stroke="#DBDDE7" stroke-width="8"/>
<path d="M268 5.38867V144.389M343 5.38867V144.389" stroke="#DBDDE7" stroke-width="8"/>
<path d="M1088 5.38867V144.389M1163 5.38867V144.389" stroke="#DBDDE7" stroke-width="8"/>
<path d="M1029 147.389V4.38867H1226V147.389H1029Z" stroke="#DBDDE7" stroke-width="8"/>
<path d="M1234 147.389V4.38867H1431V147.389H1234Z" stroke="#DBDDE7" stroke-width="8"/>
<path d="M1293 5.38867V144.389M1368 5.38867V144.389" stroke="#DBDDE7" stroke-width="8"/>
<path d="M1439 147.389V4.38867H1636V147.389H1439Z" stroke="#DBDDE7" stroke-width="8"/>
<path d="M1498 5.38867V144.389M1573 5.38867V144.389" stroke="#DBDDE7" stroke-width="8"/>
<path d="M1644 147.389V4.38867H1841V147.389H1644Z" stroke="#DBDDE7" stroke-width="8"/>
<path d="M1703 5.38867V144.389M1778 5.38867V144.389" stroke="#DBDDE7" stroke-width="8"/>
</svg>
