<svg width="1035" height="151" viewBox="0 0 1035 151" fill="none" xmlns="http://www.w3.org/2000/svg">
<rect x="3" y="4" width="197" height="142" fill="#6C3486"/>
<rect x="210" y="4" width="197" height="142" fill="#80449C"/>
<rect x="417" y="4" width="197" height="142" fill="#914EB1"/>
<rect x="624" y="4" width="197" height="142" fill="#B962E2"/>
<rect x="831" y="4" width="197" height="142" fill="#CD71F8"/>
<path d="M7.87521 147L4 5.4996C35.1128 0.478614 96.0049 -5.63786 90.6713 10.0641C85.3377 25.7661 33.2099 106.376 7.87521 147Z" fill="#5B0882"/>
<path d="M214.875 147L211 5.4996C242.113 0.478614 303.005 -5.63786 297.671 10.0641C292.338 25.7661 240.21 106.376 214.875 147Z" fill="#5B0882"/>
<path d="M421.875 147L418 5.4996C449.113 0.478614 510.005 -5.63786 504.671 10.0641C499.338 25.7661 447.21 106.376 421.875 147Z" fill="#5B0882"/>
<path d="M628.875 147L625 5.4996C656.113 0.478614 717.005 -5.63786 711.671 10.0641C706.338 25.7661 654.21 106.376 628.875 147Z" fill="#5B0882"/>
<path d="M835.875 147L832 5.4996C863.113 0.478614 924.005 -5.63786 918.671 10.0641C913.338 25.7661 861.21 106.376 835.875 147Z" fill="#5B0882"/>
<path d="M199 149V7.8588C188.685 4.66556 164.446 -0.188169 150.006 5.94285C135.565 12.0739 176.652 103.869 199 149Z" fill="#5B0882" stroke="#5B0882"/>
<path d="M406 149V5.92535C395.685 2.68837 371.446 -2.23184 357.006 3.98317C342.565 10.1982 383.652 103.251 406 149Z" fill="#5B0882" stroke="#5B0882"/>
<path d="M613 150V5.95863C602.685 2.69978 578.446 -2.25368 564.006 4.00332C549.565 10.2603 590.652 103.942 613 150Z" fill="#5B0882" stroke="#5B0882"/>
<path d="M821 150V5.95863C810.487 2.69978 785.782 -2.25368 771.064 4.00332C756.346 10.2603 798.222 103.942 821 150Z" fill="#5B0882" stroke="#5B0882"/>
<path d="M1028 150V5.95863C1017.49 2.69978 992.782 -2.25368 978.064 4.00332C963.346 10.2603 1005.22 103.942 1028 150Z" fill="#5B0882" stroke="#5B0882"/>
<path d="M4 146V4H203V146H4Z" stroke="#DBDDE7" stroke-width="8"/>
<path d="M211 146V4H410V146H211Z" stroke="#DBDDE7" stroke-width="8"/>
<path d="M418 146V4H617V146H418Z" stroke="#DBDDE7" stroke-width="8"/>
<path d="M625 146V4H824V146H625Z" stroke="#DBDDE7" stroke-width="8"/>
<path d="M832 146V4H1031V146H832Z" stroke="#DBDDE7" stroke-width="8"/>
<path d="M63 5V143M139 5V143" stroke="#DBDDE7" stroke-width="8"/>
<path d="M270 5V143M346 5V143" stroke="#DBDDE7" stroke-width="8"/>
<path d="M477 5V143M553 5V143" stroke="#DBDDE7" stroke-width="8"/>
<path d="M684 5V143M760 5V143" stroke="#DBDDE7" stroke-width="8"/>
<path d="M891 5V143M967 5V143" stroke="#DBDDE7" stroke-width="8"/>
</svg>
