<svg width="619" height="150" viewBox="0 0 619 150" fill="none" xmlns="http://www.w3.org/2000/svg">
<rect x="211" y="4" width="198" height="142" fill="#ACA6EB"/>
<rect x="211" y="7.61145" width="54" height="136" fill="#5D00F4"/>
<path d="M404.897 80L409 9.89931C409 9.89931 351.561 -4.82773 345.407 12.2556C339.253 29.339 404.897 80 404.897 80Z" fill="#5D00F4" stroke="#5D00F4"/>
<path d="M210 146V4H408V146H210Z" stroke="#DBDDE7" stroke-width="8"/>
<path d="M269 7V145M345 7V145" stroke="#DBDDE7" stroke-width="8"/>
<rect x="414" y="4" width="198" height="142" fill="#EBA6DC"/>
<rect x="414" y="8" width="58" height="136" fill="#D200F4"/>
<path d="M610.897 80L615 9.89931C615 9.89931 557.561 -4.82773 551.407 12.2556C545.253 29.339 610.897 80 610.897 80Z" fill="#D200F4" stroke="#D200F4"/>
<path d="M416 146V4H615V146H416Z" stroke="#DBDDE7" stroke-width="8"/>
<path d="M475 7V145M552 5.5V76.5V146" stroke="#DBDDE7" stroke-width="8"/>
<rect x="5" y="4" width="198" height="142" fill="#EBA6A9"/>
<rect x="5" y="7.61145" width="54" height="136" fill="#F40076"/>
<path d="M198.897 80L203 9.89931C203 9.89931 145.561 -4.82773 139.407 12.2556C133.253 29.339 198.897 80 198.897 80Z" fill="#F40076" stroke="#F40076"/>
<path d="M4 146V4H202V146H4Z" stroke="#DBDDE7" stroke-width="8"/>
<path d="M63 7V145M139 7V145" stroke="#DBDDE7" stroke-width="8"/>
</svg>
