<svg width="207" height="150" viewBox="0 0 207 150" fill="none" xmlns="http://www.w3.org/2000/svg">
<rect x="8" y="4" width="198" height="142" fill="#D7ED9A"/>
<path d="M178.876 10.7749C178.974 7.53936 181.626 5 184.863 5H197C200.314 5 203 7.68629 203 11V140C203 143.314 200.319 146 197.005 146C190.926 146 182.007 146 179.057 146C174.993 146 178.066 37.281 178.876 10.7749Z" fill="#883677"/>
<path d="M5.76408 7.56183C5.95713 4.40658 8.57128 2 11.7324 2H52.6427C53.3864 2 53.9836 2.6134 53.9637 3.35681L52.4844 58.6655C52.4726 59.1051 51.7069 88.0608 51.6864 88.5V88.5C50.7942 107.587 46.142 129.297 43.9913 138.499C43.3687 141.163 40.9944 143 38.2586 143C30.0063 143 13.0002 143 6.11335 143C-2.03545 143 4.16532 33.6925 5.76408 7.56183Z" fill="#883677"/>
<path d="M4 146V4H203V146H4Z" stroke="#DBDDE7" stroke-width="8"/>
<path d="M64 5V143M138 5V143" stroke="#DBDDE7" stroke-width="8"/>
</svg>
