<svg width="1845" height="201" viewBox="0 0 1845 201" fill="none" xmlns="http://www.w3.org/2000/svg">
<rect x="5" y="4.99951" width="197" height="141" fill="#FFA8CC"/>
<rect x="211" y="7" width="197" height="141" fill="#FFA8CC"/>
<path d="M4 147.388V4.38818H201V147.388H4Z" stroke="#DBDDE7" stroke-width="8"/>
<path d="M63 5.38818V144.388M138 5.38818V144.388" stroke="#DBDDE7" stroke-width="8"/>
<rect y="151" width="76" height="50" fill="#DBDDE7"/>
<rect x="5" y="157" width="48" height="38" rx="5" fill="#252525"/>
<ellipse cx="26.5" cy="176" rx="19.5" ry="19" fill="#454545"/>
<line x1="26.5" y1="160" x2="26.5" y2="176" stroke="black"/>
<line x1="26.5" y1="177" x2="26.5" y2="193" stroke="black"/>
<line x1="43" y1="176.5" x2="27" y2="176.5" stroke="black"/>
<line x1="26" y1="176.5" x2="10" y2="176.5" stroke="black"/>
<path d="M403 149.79V8.84107C383.372 6.67595 324.892 -4.0158 320.296 4.81786C315.7 13.6515 333.187 83.0601 372 99.0004C380.871 102.644 381.192 120.863 372 124.5C362.808 128.138 346.309 133.211 342 147.5L403 149.79Z" fill="#002A32" stroke="#002A32"/>
<rect x="205" y="151" width="76" height="50" fill="#DBDDE7"/>
<rect x="210" y="157" width="48" height="38" rx="5" fill="#252525"/>
<ellipse cx="231.5" cy="176" rx="19.5" ry="19" fill="#454545"/>
<line x1="234.365" y1="160.25" x2="231.587" y2="176.007" stroke="black"/>
<line x1="231.413" y1="176.992" x2="228.635" y2="192.749" stroke="black"/>
<line x1="247.749" y1="179.364" x2="231.992" y2="176.586" stroke="black"/>
<line x1="231.008" y1="176.413" x2="215.251" y2="173.634" stroke="black"/>
<rect x="415" y="4.38818" width="198" height="143" fill="#FFA8CC"/>
<path d="M608 150V5.08068C588.446 2.94314 533.5 1.50049 523.323 5.08045C514.031 8.34902 525.813 78.4362 548.228 104.3C561.179 122.565 578.612 125.033 561.677 126.514C551.867 127.372 532.098 135.893 527.806 150H608Z" fill="#002A32" stroke="#002A32"/>
<rect x="410" y="151" width="76" height="50" fill="#DBDDE7"/>
<rect x="415" y="157" width="48" height="38" rx="5" fill="#252525"/>
<ellipse cx="436.5" cy="176" rx="19.5" ry="19" fill="#454545"/>
<line x1="442.143" y1="160.994" x2="436.671" y2="176.03" stroke="black"/>
<line x1="436.329" y1="176.969" x2="430.857" y2="192.004" stroke="black"/>
<line x1="452.005" y1="182.143" x2="436.97" y2="176.67" stroke="black"/>
<line x1="436.03" y1="176.328" x2="420.995" y2="170.856" stroke="black"/>
<rect x="620" y="4.38818" width="198" height="143" fill="#FFA8CC"/>
<path d="M813 149.79V8.8411C793.372 6.67599 728.596 0.00741005 724 8.84108C719.404 17.6747 725.499 75.8026 748 102C750.394 101.134 763.692 110.363 754.5 114C745.308 117.638 728.309 135.5 724 149.79H813Z" fill="#002A32" stroke="#002A32"/>
<rect x="615" y="151" width="76" height="50" fill="#DBDDE7"/>
<rect x="620" y="157" width="48" height="38" rx="5" fill="#252525"/>
<ellipse cx="641.5" cy="176" rx="19.5" ry="19" fill="#454545"/>
<line x1="649.75" y1="162.21" x2="641.75" y2="176.066" stroke="black"/>
<line x1="641.25" y1="176.932" x2="633.25" y2="190.789" stroke="black"/>
<line x1="655.789" y1="184.749" x2="641.933" y2="176.749" stroke="black"/>
<line x1="641.067" y1="176.249" x2="627.211" y2="168.249" stroke="black"/>
<rect x="1030" y="4.38818" width="198" height="143" fill="#FFA8CC"/>
<path d="M1223 147V8.37934C1185.17 6.24999 1126.67 -0.3084 1117.82 8.37935C1108.96 17.0671 1106.64 66.2349 1150 92C1154.61 91.1483 1150.22 99.9227 1132.5 103.5C1114.78 107.077 1171.56 132.946 1163.25 147H1223Z" fill="#002A32" stroke="#002A32"/>
<rect x="1025" y="151" width="76" height="50" fill="#DBDDE7"/>
<rect x="1030" y="157" width="48" height="38" rx="5" fill="#252525"/>
<ellipse cx="1051.5" cy="176" rx="19.5" ry="19" fill="#454545"/>
<line x1="1064.14" y1="165.893" x2="1051.88" y2="176.178" stroke="black"/>
<line x1="1051.12" y1="176.821" x2="1038.86" y2="187.105" stroke="black"/>
<line x1="1062.11" y1="189.139" x2="1051.82" y2="176.882" stroke="black"/>
<line x1="1051.18" y1="176.116" x2="1040.89" y2="163.859" stroke="black"/>
<rect x="1235" y="4.38818" width="198" height="143" fill="#EBA6A9"/>
<path d="M1428 149.79V8.84108C1408.37 6.67597 1378.02 0.00741911 1373.42 8.84109C1368.83 17.6748 1402.63 76.8257 1425.13 103.024C1427.52 102.158 1430.01 101.335 1420.82 104.972C1411.63 108.61 1401.31 135.5 1397 149.79H1428Z" fill="#F40076" stroke="#F40076"/>
<rect x="1230" y="151" width="76" height="50" fill="#DBDDE7"/>
<rect x="1235" y="157" width="48" height="38" rx="5" fill="#252525"/>
<ellipse cx="1256.5" cy="176" rx="19.5" ry="19" fill="#454545"/>
<line x1="1270.79" y1="168.249" x2="1256.93" y2="176.249" stroke="black"/>
<line x1="1256.07" y1="176.749" x2="1242.21" y2="184.749" stroke="black"/>
<line x1="1264.75" y1="190.789" x2="1256.75" y2="176.932" stroke="black"/>
<line x1="1256.25" y1="176.066" x2="1248.25" y2="162.21" stroke="black"/>
<rect x="1440" y="4.38818" width="198" height="143" fill="#EBA6A9"/>
<path d="M1633 149.79V8.84108C1613.37 6.67597 1583.02 0.00741911 1578.42 8.84109C1573.83 17.6748 1607.63 76.8257 1630.13 103.024C1632.52 102.158 1635.01 101.335 1625.82 104.972C1616.63 108.61 1606.31 135.5 1602 149.79H1633Z" fill="#002A32" stroke="#002A32"/>
<rect x="1435" y="151" width="76" height="50" fill="#DBDDE7"/>
<rect x="1440" y="157" width="48" height="38" rx="5" fill="#252525"/>
<ellipse cx="1461.5" cy="176" rx="19.5" ry="19" fill="#454545"/>
<line x1="1477" y1="170.856" x2="1461.97" y2="176.328" stroke="black"/>
<line x1="1461.03" y1="176.67" x2="1446" y2="182.143" stroke="black"/>
<line x1="1467.14" y1="192.004" x2="1461.67" y2="176.969" stroke="black"/>
<line x1="1461.33" y1="176.029" x2="1455.86" y2="160.994" stroke="black"/>
<rect x="1645" y="4.38818" width="198" height="143" fill="#EBA6A9"/>
<path d="M1838 149.79V8.84108C1818.37 6.67597 1788.02 0.00741911 1783.42 8.84109C1778.83 17.6748 1812.63 76.8257 1835.13 103.024C1837.52 102.158 1840.01 101.335 1830.82 104.972C1821.63 108.61 1811.31 135.5 1807 149.79H1838Z" fill="#F40076" stroke="#F40076"/>
<rect x="1640" y="151" width="76" height="50" fill="#DBDDE7"/>
<rect x="1645" y="157" width="48" height="38" rx="5" fill="#252525"/>
<ellipse cx="1666.5" cy="176" rx="19.5" ry="19" fill="#454545"/>
<line x1="1682.75" y1="173.634" x2="1666.99" y2="176.412" stroke="black"/>
<line x1="1666.01" y1="176.586" x2="1650.25" y2="179.365" stroke="black"/>
<line x1="1669.37" y1="192.749" x2="1666.59" y2="176.992" stroke="black"/>
<line x1="1666.41" y1="176.007" x2="1663.64" y2="160.25" stroke="black"/>
<rect x="825" y="4.38818" width="198" height="143" fill="#FFA8CC"/>
<path d="M1018 149.79V8.84108C998.372 6.67597 968.02 0.00741911 963.424 8.84109C958.828 17.6748 916.499 50.8026 939 77.0005C931.373 68.1203 926.82 62.7609 924.543 60.0639C921.909 56.944 922.32 57.387 924.543 60.0639C932.219 69.3099 961.5 105.207 961.5 113C961.5 122.886 933.309 132.211 929 146.5L1018 149.79Z" fill="#002A32" stroke="#002A32"/>
<rect x="820" y="151" width="76" height="50" fill="#DBDDE7"/>
<rect x="825" y="157" width="48" height="38" rx="5" fill="#252525"/>
<ellipse cx="846.5" cy="176" rx="19.5" ry="19" fill="#454545"/>
<line x1="857.106" y1="163.859" x2="846.821" y2="176.116" stroke="black"/>
<line x1="846.179" y1="176.882" x2="835.894" y2="189.139" stroke="black"/>
<line x1="859.14" y1="187.105" x2="846.883" y2="176.821" stroke="black"/>
<line x1="846.117" y1="176.178" x2="833.86" y2="165.893" stroke="black"/>
<path d="M1032 7.99968C1032 7.99968 1139 -5.50095 1182 5.50002C1225 16.501 1146 144 1146 144L1032 144V7.99968Z" fill="#002A32"/>
<path d="M827 6.99951L970.5 9.00049C970.5 9.00049 962.898 124.696 913 144C893.696 151.467 827 144 827 144V6.99951Z" fill="#002A32"/>
<path d="M622 7.99951L745 4.50049C745 4.50049 728.922 104.455 689.5 132C673.801 142.97 622 145 622 145V7.99951Z" fill="#002A32"/>
<path d="M417 6.99951H508C508 6.99951 496 77.0005 474.5 108C453 139 417 144 417 144V6.99951Z" fill="#002A32"/>
<path d="M824 147.388V4.38818H1021V147.388H824Z" stroke="#DBDDE7" stroke-width="8"/>
<path d="M678 5.38818V144.388M753 5.38818V144.388" stroke="#DBDDE7" stroke-width="8"/>
<path d="M473 5.38818V144.388M548 5.38818V144.388" stroke="#DBDDE7" stroke-width="8"/>
<path d="M619 147.388V4.38818H816V147.388H619Z" stroke="#DBDDE7" stroke-width="8"/>
<path d="M414 147.388V4.38818H611V147.388H414Z" stroke="#DBDDE7" stroke-width="8"/>
<path d="M209 147.388V4.38818H406V147.388H209Z" stroke="#DBDDE7" stroke-width="8"/>
<path d="M883 5.38818V144.388M958 5.38818V144.388" stroke="#DBDDE7" stroke-width="8"/>
<path d="M268 5.38818V144.388M343 5.38818V144.388" stroke="#DBDDE7" stroke-width="8"/>
<path d="M1088 5.38818V144.388M1163 5.38818V144.388" stroke="#DBDDE7" stroke-width="8"/>
<path d="M1029 147.388V4.38818H1226V147.388H1029Z" stroke="#DBDDE7" stroke-width="8"/>
<path d="M1234.5 6.99951H1443.5L1426 144H1237.5L1234.5 6.99951Z" fill="#002A32"/>
<path d="M1234 147.388V4.38818H1431V147.388H1234Z" stroke="#DBDDE7" stroke-width="8"/>
<path d="M1293 5.38818V144.388M1368 5.38818V144.388" stroke="#DBDDE7" stroke-width="8"/>
<path d="M1442 6.99951H1602C1602 6.99951 1651.5 119 1638 135.5C1624.5 152 1442 144 1442 144V6.99951Z" fill="#002A32"/>
<path d="M1439 147.388V4.38818H1636V147.388H1439Z" stroke="#DBDDE7" stroke-width="8"/>
<path d="M1498 5.38818V144.388M1573 5.38818V144.388" stroke="#DBDDE7" stroke-width="8"/>
<path d="M1647 7.99951H1838V145H1647V7.99951Z" fill="#002A32"/>
<path d="M1644 147.388V4.38818H1841V147.388H1644Z" stroke="#DBDDE7" stroke-width="8"/>
<path d="M1703 5.38818V144.388M1778 5.38818V144.388" stroke="#DBDDE7" stroke-width="8"/>
</svg>
