<svg width="1082" height="174" viewBox="0 0 1082 174" fill="none" xmlns="http://www.w3.org/2000/svg">
<rect x="3" y="3" width="148" height="167" fill="#F4F2B8"/>
<rect x="157" y="3" width="148" height="167" fill="#F4F2B8"/>
<rect x="312" y="3" width="148" height="167" fill="#F4F2B8"/>
<rect x="467" y="3" width="148" height="167" fill="#F4F2B8"/>
<rect x="621" y="3" width="148" height="167" fill="#F4F2B8"/>
<rect x="775.5" y="3" width="148" height="167" fill="#F40076"/>
<path d="M151 168.051V8.05464C123.164 5.59694 80.119 -1.97276 73.6012 8.05465C67.0834 18.0821 115.016 85.2263 146.926 114.964C150.321 113.981 153.852 113.047 140.816 117.176C127.78 121.305 112.301 154.779 106.19 171L151 168.051Z" fill="#F40076" stroke="#F40076"/>
<path d="M305 168.178L303 6.52045C265.941 4.16865 233.769 -8.54167 201.957 15.0756C162.714 44.209 220.627 81.5287 269.054 110.715C276.532 115.221 294.896 126.859 277.541 130.81C260.187 134.761 253.478 155.478 245.343 171L305 168.178Z" fill="#F40076" stroke="#F40076"/>
<path d="M460 168.178L458 6.52045C420.941 4.16865 388.769 -8.54167 356.957 15.0756C317.714 44.209 352.573 81.3142 401 110.5C408.478 115.007 418.355 134.549 401 138.5C383.645 142.451 386.635 152.656 378.5 168.178H460Z" fill="#F40076" stroke="#F40076"/>
<path d="M615 168L612.999 6.51458C575.919 4.16528 543.73 -8.53152 511.9 15.0606C472.636 44.163 465.49 73.2373 513.944 102.392C521.427 106.894 570.785 128.491 555.967 138.354C533.455 153.338 541.594 152.495 533.455 168H615Z" fill="#F40076" stroke="#F40076"/>
<path d="M769 168.178L767 6.52045C729.941 4.16865 697.769 -8.54167 665.957 15.0756C626.714 44.209 619.573 73.3142 668 102.5C675.478 107.007 700.309 111.127 685.5 121C663 136 695.635 152.656 687.5 168.178H769Z" fill="#F40076" stroke="#F40076"/>
<path d="M923.5 168.178L921.5 6.52045C884.441 4.16865 852.269 -8.54167 820.457 15.0756C781.214 44.209 774.073 73.3142 822.5 102.5C829.978 107.007 854.809 111.127 840 121C817.5 136 850.135 152.656 842 168.178H923.5Z" fill="#F40076" stroke="#F40076"/>
<path d="M1078 168.178L1076 6.52045C1038.94 4.16865 1006.77 -8.54167 974.957 15.0756C935.714 44.209 928.573 73.3142 977 102.5C984.478 107.007 1009.31 111.127 994.5 121C972 136 1004.63 152.656 996.5 168.178H1078Z" fill="#F40076" stroke="#F40076"/>
<path d="M66.5067 8.67466C71.8546 23.8997 32.5251 125.847 6.34246 171L3 8.67466C25.8401 4.94304 61.1588 -6.55033 66.5067 8.67466Z" fill="#F40076" stroke="#F40076"/>
<path d="M241.345 8.67466C248.448 23.8997 196.213 125.847 161.439 171L157 8.67466C187.335 4.94304 234.242 -6.55033 241.345 8.67466Z" fill="#F40076" stroke="#F40076"/>
<path d="M430.083 8.67466C440.027 23.8997 366.898 125.847 318.215 171L312 8.67466C354.468 4.94304 420.139 -6.55033 430.083 8.67466Z" fill="#F40076" stroke="#F40076"/>
<path d="M582.731 9.56891C602.37 73.7078 529.55 177.306 470.639 170.699L467 9.56733C509.553 5.86319 577.441 -7.70456 582.731 9.56891Z" fill="#F40076" stroke="#F40076"/>
<path d="M736.731 9.56891C756.37 73.7078 683.55 177.306 624.639 170.699L621 9.56733C663.553 5.86319 731.441 -7.70456 736.731 9.56891Z" fill="#F40076" stroke="#F40076"/>
<path d="M1045.73 9.56577C1090.58 87.8363 1029.18 195.673 930 166.497V9.56419C972.553 5.86005 1036.75 -6.10804 1045.73 9.56577Z" fill="#F40076" stroke="#F40076"/>
<path d="M4 170V4H151V170H4Z" stroke="#DBDDE7" stroke-width="8"/>
<path d="M158 170V4H305V170H158Z" stroke="#DBDDE7" stroke-width="8"/>
<path d="M313 170V4H460V170H313Z" stroke="#DBDDE7" stroke-width="8"/>
<path d="M468 170V4H615V170H468Z" stroke="#DBDDE7" stroke-width="8"/>
<path d="M622 170V4H769V170H622Z" stroke="#DBDDE7" stroke-width="8"/>
<path d="M776.5 170V4H923.5V170H776.5Z" stroke="#DBDDE7" stroke-width="8"/>
<path d="M931 170V4H1078V170H931Z" stroke="#DBDDE7" stroke-width="8"/>
<path d="M70 8V49.8235M70 170V49.8235M70 49.8235H6" stroke="#DBDDE7" stroke-width="8"/>
<path d="M224 8V49.8235M224 170V49.8235M224 49.8235H160" stroke="#DBDDE7" stroke-width="8"/>
<path d="M379 8V49.8235M379 170V49.8235M379 49.8235H315" stroke="#DBDDE7" stroke-width="8"/>
<path d="M534 8V49.8235M534 170V49.8235M534 49.8235H470" stroke="#DBDDE7" stroke-width="8"/>
<path d="M688 8V49.8235M688 170V49.8235M688 49.8235H624" stroke="#DBDDE7" stroke-width="8"/>
<path d="M842.5 8V49.8235M842.5 170V49.8235M842.5 49.8235H778.5" stroke="#DBDDE7" stroke-width="8"/>
<path d="M997 8V49.8235M997 170V49.8235M997 49.8235H933" stroke="#DBDDE7" stroke-width="8"/>
</svg>
