<svg width="1435" height="150" viewBox="0 0 1435 150" fill="none" xmlns="http://www.w3.org/2000/svg">
<rect x="5" y="4" width="198" height="142" fill="#F4F2B8"/>
<path d="M8 145.419L8 5.42281C27.6282 3.27233 57.9802 -3.35116 62.5761 5.42282C67.172 14.1968 33.3731 72.9481 10.8724 98.9689C8.47874 98.1087 5.9893 97.2915 15.1811 100.904C24.3728 104.517 35.288 133.807 39.5967 148L8 145.419Z" fill="#7DB589" stroke="#7DB589"/>
<path d="M199 145.419V5.42281C179.372 3.27233 149.02 -3.35116 144.424 5.42282C139.828 14.1968 173.627 72.9481 196.128 98.9689C198.521 98.1087 201.011 97.2916 191.819 100.904C182.627 104.517 171.712 133.807 167.403 148L199 145.419Z" fill="#7DB589" stroke="#7DB589"/>
<path d="M4 146V4H201V146H4Z" stroke="#DBDDE7" stroke-width="8"/>
<path d="M63 5V143M138 5V143" stroke="#DBDDE7" stroke-width="8"/>
<rect x="210" y="4" width="198" height="142" fill="#E3E2AF"/>
<path d="M213 145.419V5.42281C232.628 3.27233 262.98 -3.35116 267.576 5.42282C272.172 14.1968 238.373 72.9481 215.872 98.9689C213.479 98.1087 210.989 97.2915 220.181 100.904C229.373 104.517 240.288 133.807 244.597 148L213 145.419Z" fill="#7DB589" stroke="#7DB589"/>
<path d="M404 145.419V5.42281C384.372 3.27233 354.02 -3.35116 349.424 5.42282C344.828 14.1968 378.627 72.9481 401.128 98.9689C403.521 98.1087 406.011 97.2916 396.819 100.904C387.627 104.517 376.712 133.807 372.403 148L404 145.419Z" fill="#7DB589" stroke="#7DB589"/>
<path d="M209 146V4H406V146H209Z" stroke="#DBDDE7" stroke-width="8"/>
<path d="M268 5V143M343 5V143" stroke="#DBDDE7" stroke-width="8"/>
<rect x="415" y="4" width="198" height="142" fill="#DAD9A8"/>
<path d="M418 145.419V5.42281C437.628 3.27232 467.98 -3.35116 472.576 5.42282C477.172 14.1968 474.001 74.4791 451.5 100.5C449.106 99.6398 459.398 118.866 465 127C472.576 138 471.191 131.226 475.5 145.419H418Z" fill="#7DB589" stroke="#7DB589"/>
<path d="M609 145.419V5.42281C589.372 3.27233 559.02 -3.35117 554.424 5.42282C549.828 14.1968 548.872 71.0311 594 102C596.394 101.14 582.692 118.887 573.5 122.5C564.308 126.113 558.733 133.807 554.424 148L609 145.419Z" fill="#7DB589" stroke="#7DB589"/>
<path d="M414 146V4H611V146H414Z" stroke="#DBDDE7" stroke-width="8"/>
<path d="M473 5V143M548 5V143" stroke="#DBDDE7" stroke-width="8"/>
<rect x="620" y="4" width="198" height="142" fill="#D0CFA1"/>
<path d="M623 145.419V5.42262C642.628 3.27213 698.203 0.0135264 706.5 5.42261C720.122 14.3031 680.29 74.7762 657.489 101.758C658.859 101.933 660.818 102.446 663.5 103.5C672.692 107.113 702.191 127.307 706.5 141.5L623 145.419Z" fill="#7DB589"/>
<path d="M623 5.42262V145.419L706.5 141.5C702.191 127.307 672.692 107.113 663.5 103.5C654.308 99.887 653.606 102.64 656 103.5C678.501 77.4789 720.424 14.4997 706.5 5.42261C698.203 0.0135264 642.628 3.27213 623 5.42262Z" stroke="#7DB589"/>
<path d="M814 145.419V5.42282C794.372 3.27234 729.096 -3.35117 724.5 5.42281C719.904 14.1968 762.999 71.4791 785.5 97.5C787.894 96.6398 787.192 103.887 778 107.5C768.808 111.113 742.309 131.226 738 145.419H814Z" fill="#7DB589" stroke="#7DB589"/>
<path d="M619 146V4H816V146H619Z" stroke="#DBDDE7" stroke-width="8"/>
<path d="M678 5V143M753 5V143" stroke="#DBDDE7" stroke-width="8"/>
<rect x="825" y="4" width="198" height="142" fill="#BBBA92"/>
<path d="M828 145.419V5.42267C847.628 3.27219 913.703 -1.90909 922 3.5C935.924 12.577 912.501 70.9792 890 97.0001C888.703 98.5001 884.808 100.887 894 104.5C903.192 108.113 927.191 127.807 931.5 142L828 145.419Z" fill="#7DB589" stroke="#7DB589"/>
<path d="M1019 145V7.45296C999.329 5.3401 916.374 -4.03916 911.768 4.5813C907.163 13.2018 901.246 67.9525 958.369 96.4452C945.341 96.4452 979.106 105.668 969.894 109.218C960.682 112.767 932.622 131.055 928.304 145H1019Z" fill="#7DB589" stroke="#7DB589"/>
<path d="M824 146V4H1021V146H824Z" stroke="#DBDDE7" stroke-width="8"/>
<path d="M883 5V143M958 5V143" stroke="#DBDDE7" stroke-width="8"/>
<rect x="1030" y="4" width="198" height="142" fill="#AAA987"/>
<path d="M1033 145.419V5.42267C1052.63 3.27219 1118.7 -1.90909 1127 3.5C1140.92 12.577 1132 67.4791 1109.5 93.5C1108.2 95 1117.81 106.887 1127 110.5C1136.19 114.113 1132.19 127.807 1136.5 142L1033 145.419Z" fill="#7DB589" stroke="#7DB589"/>
<path d="M1224 145V7.45298C1204.33 5.34012 1121.37 -4.03914 1116.77 4.58132C1112.16 13.2018 1080.88 64.5073 1138 93C1154.5 104 1147.5 107.381 1142 109.5C1132.79 113.05 1137.62 131.055 1133.3 145H1224Z" fill="#7DB589" stroke="#7DB589"/>
<path d="M1029 146V4H1226V146H1029Z" stroke="#DBDDE7" stroke-width="8"/>
<path d="M1088 5V143M1163 5V143" stroke="#DBDDE7" stroke-width="8"/>
<rect x="1235" y="4" width="198" height="142" fill="#A0A07F"/>
<path d="M1238 145.419V5.42272C1257.63 3.27223 1323.7 -1.90905 1332 3.50004C1345.92 12.5771 1359.5 65.9791 1337 92C1335.7 93.5 1330.81 103.387 1340 107C1349.19 110.613 1337.19 127.807 1341.5 142L1238 145.419Z" fill="#7DB589" stroke="#7DB589"/>
<path d="M1429 145V7.45298C1409.33 5.34012 1326.37 -4.03914 1321.77 4.58132C1317.73 12.1352 1293.21 52.4646 1325.64 81.5C1316.43 85.0496 1342.62 131.055 1338.3 145H1429Z" fill="#7DB589"/>
<path d="M1429 7.45298V145H1338.3C1342.62 131.055 1316.43 85.0496 1325.64 81.5C1331.14 79.3806 1359.5 104 1343 93C1285.88 64.5073 1317.16 13.2018 1321.77 4.58132C1326.37 -4.03914 1409.33 5.34012 1429 7.45298Z" stroke="#7DB589"/>
<path d="M1234 146V4H1431V146H1234Z" stroke="#DBDDE7" stroke-width="8"/>
<path d="M1293 5V143M1368 5V143" stroke="#DBDDE7" stroke-width="8"/>
</svg>
