<svg width="1845" height="201" viewBox="0 0 1845 201" fill="none" xmlns="http://www.w3.org/2000/svg">
<rect x="5" y="4.38867" width="198" height="143" fill="#EBA6A9"/>
<path d="M8 144.437V5.39272C25.487 3.25687 52.5278 -3.32157 56.6223 5.39273C60.7168 14.107 30.6051 72.4586 10.5591 98.3025C8.42651 97.4481 6.20865 96.6365 14.3977 100.225C22.5867 103.813 32.3112 132.903 36.1498 147L8 144.437Z" fill="#883677" stroke="#883677"/>
<path d="M198 149.791V8.84157C178.372 6.67646 148.02 0.00790739 143.424 8.84158C138.828 17.6752 172.627 76.8262 195.128 103.024C197.521 102.158 200.011 101.335 190.819 104.973C181.627 108.61 171.309 135.501 167 149.791H198Z" fill="#883677" stroke="#883677"/>
<path d="M4 147.389V4.38867H201V147.389H4Z" stroke="#DBDDE7" stroke-width="8"/>
<path d="M63 5.38867V144.389M138 5.38867V144.389" stroke="#DBDDE7" stroke-width="8"/>
<rect y="151" width="76" height="50" fill="#DBDDE7"/>
<rect x="5" y="157" width="48" height="38" rx="5" fill="#252525"/>
<ellipse cx="26.5" cy="176" rx="19.5" ry="19" fill="#454545"/>
<line x1="26.5" y1="160" x2="26.5" y2="176" stroke="black"/>
<line x1="26.5" y1="177" x2="26.5" y2="193" stroke="black"/>
<line x1="43" y1="176.5" x2="27" y2="176.5" stroke="black"/>
<line x1="26" y1="176.5" x2="10" y2="176.5" stroke="black"/>
<rect x="210" y="4.38867" width="198" height="143" fill="#EBA6A9"/>
<path d="M213 144.437V5.39272C230.487 3.25687 257.528 -3.32157 261.622 5.39273C265.717 14.107 235.605 72.4586 215.559 98.3025C213.427 97.4481 211.209 96.6365 219.398 100.225C227.587 103.813 237.311 132.903 241.15 147L213 144.437Z" fill="#883677" stroke="#883677"/>
<path d="M403 149.791V8.84157C383.372 6.67646 353.02 0.00790739 348.424 8.84158C343.828 17.6752 377.627 76.8262 400.128 103.024C402.521 102.158 405.011 101.335 395.819 104.973C386.627 108.61 376.309 135.501 372 149.791H403Z" fill="#883677" stroke="#883677"/>
<path d="M209 147.389V4.38867H406V147.389H209Z" stroke="#DBDDE7" stroke-width="8"/>
<path d="M268 5.38867V144.389M343 5.38867V144.389" stroke="#DBDDE7" stroke-width="8"/>
<rect x="205" y="151" width="76" height="50" fill="#DBDDE7"/>
<rect x="210" y="157" width="48" height="38" rx="5" fill="#252525"/>
<ellipse cx="231.5" cy="176" rx="19.5" ry="19" fill="#454545"/>
<line x1="234.365" y1="160.25" x2="231.587" y2="176.007" stroke="black"/>
<line x1="231.413" y1="176.992" x2="228.635" y2="192.749" stroke="black"/>
<line x1="247.749" y1="179.365" x2="231.992" y2="176.587" stroke="black"/>
<line x1="231.008" y1="176.413" x2="215.251" y2="173.634" stroke="black"/>
<rect x="415" y="4.38867" width="198" height="143" fill="#EBA6A9"/>
<path d="M418 144.437V5.39272C435.487 3.25687 462.528 -3.32157 466.622 5.39273C470.717 14.107 440.605 72.4586 420.559 98.3025C418.427 97.4481 416.209 96.6365 424.398 100.225C432.587 103.813 442.311 132.903 446.15 147L418 144.437Z" fill="#883677" stroke="#883677"/>
<path d="M608 149.791V8.84157C588.372 6.67646 558.02 0.00790739 553.424 8.84158C548.828 17.6752 582.627 76.8262 605.128 103.024C607.521 102.158 610.011 101.335 600.819 104.973C591.627 108.61 581.309 135.501 577 149.791H608Z" fill="#883677" stroke="#883677"/>
<path d="M414 147.389V4.38867H611V147.389H414Z" stroke="#DBDDE7" stroke-width="8"/>
<path d="M473 5.38867V144.389M548 5.38867V144.389" stroke="#DBDDE7" stroke-width="8"/>
<rect x="410" y="151" width="76" height="50" fill="#DBDDE7"/>
<rect x="415" y="157" width="48" height="38" rx="5" fill="#252525"/>
<ellipse cx="436.5" cy="176" rx="19.5" ry="19" fill="#454545"/>
<line x1="442.143" y1="160.995" x2="436.671" y2="176.03" stroke="black"/>
<line x1="436.329" y1="176.97" x2="430.857" y2="192.005" stroke="black"/>
<line x1="452.005" y1="182.143" x2="436.97" y2="176.671" stroke="black"/>
<line x1="436.03" y1="176.329" x2="420.995" y2="170.856" stroke="black"/>
<rect x="620" y="4.38867" width="198" height="143" fill="#EBA6A9"/>
<path d="M623 144.437V5.39272C640.487 3.25687 667.528 -3.32157 671.622 5.39273C675.717 14.107 645.605 72.4586 625.559 98.3025C623.427 97.4481 621.209 96.6365 629.398 100.225C637.587 103.813 647.311 132.903 651.15 147L623 144.437Z" fill="#883677" stroke="#883677"/>
<path d="M813 149.791V8.84157C793.372 6.67646 763.02 0.00790739 758.424 8.84158C753.828 17.6752 787.627 76.8262 810.128 103.024C812.521 102.158 815.011 101.335 805.819 104.973C796.627 108.61 786.309 135.501 782 149.791H813Z" fill="#883677" stroke="#883677"/>
<path d="M619 147.389V4.38867H816V147.389H619Z" stroke="#DBDDE7" stroke-width="8"/>
<path d="M678 5.38867V144.389M753 5.38867V144.389" stroke="#DBDDE7" stroke-width="8"/>
<rect x="615" y="151" width="76" height="50" fill="#DBDDE7"/>
<rect x="620" y="157" width="48" height="38" rx="5" fill="#252525"/>
<ellipse cx="641.5" cy="176" rx="19.5" ry="19" fill="#454545"/>
<line x1="649.75" y1="162.21" x2="641.75" y2="176.067" stroke="black"/>
<line x1="641.25" y1="176.933" x2="633.25" y2="190.79" stroke="black"/>
<line x1="655.789" y1="184.75" x2="641.933" y2="176.75" stroke="black"/>
<line x1="641.067" y1="176.25" x2="627.211" y2="168.25" stroke="black"/>
<rect x="825" y="4.38867" width="198" height="143" fill="#EBA6A9"/>
<path d="M828 144.437V5.39272C845.487 3.25687 872.528 -3.32157 876.622 5.39273C880.717 14.107 850.605 72.4586 830.559 98.3025C828.427 97.4481 826.209 96.6365 834.398 100.225C842.587 103.813 852.311 132.903 856.15 147L828 144.437Z" fill="#883677" stroke="#883677"/>
<path d="M1018 149.791V8.84157C998.372 6.67646 968.02 0.00790739 963.424 8.84158C958.828 17.6752 992.627 76.8262 1015.13 103.024C1017.52 102.158 1020.01 101.335 1010.82 104.973C1001.63 108.61 991.309 135.501 987 149.791H1018Z" fill="#883677" stroke="#883677"/>
<path d="M824 147.389V4.38867H1021V147.389H824Z" stroke="#DBDDE7" stroke-width="8"/>
<path d="M883 5.38867V144.389M958 5.38867V144.389" stroke="#DBDDE7" stroke-width="8"/>
<rect x="820" y="151" width="76" height="50" fill="#DBDDE7"/>
<rect x="825" y="157" width="48" height="38" rx="5" fill="#252525"/>
<ellipse cx="846.5" cy="176" rx="19.5" ry="19" fill="#454545"/>
<line x1="857.106" y1="163.86" x2="846.821" y2="176.117" stroke="black"/>
<line x1="846.179" y1="176.882" x2="835.894" y2="189.139" stroke="black"/>
<line x1="859.14" y1="187.106" x2="846.883" y2="176.821" stroke="black"/>
<line x1="846.117" y1="176.178" x2="833.86" y2="165.894" stroke="black"/>
<rect x="1030" y="4.38867" width="198" height="143" fill="#EBA6A9"/>
<path d="M1033 144.437V5.39272C1050.49 3.25687 1077.53 -3.32157 1081.62 5.39273C1085.72 14.107 1055.61 72.4586 1035.56 98.3025C1033.43 97.4481 1031.21 96.6365 1039.4 100.225C1047.59 103.813 1057.31 132.903 1061.15 147L1033 144.437Z" fill="#883677" stroke="#883677"/>
<path d="M1223 149.791V8.84157C1203.37 6.67646 1173.02 0.00790739 1168.42 8.84158C1163.83 17.6752 1197.63 76.8262 1220.13 103.024C1222.52 102.158 1225.01 101.335 1215.82 104.973C1206.63 108.61 1196.31 135.501 1192 149.791H1223Z" fill="#883677" stroke="#883677"/>
<path d="M1029 147.389V4.38867H1226V147.389H1029Z" stroke="#DBDDE7" stroke-width="8"/>
<path d="M1088 5.38867V144.389M1163 5.38867V144.389" stroke="#DBDDE7" stroke-width="8"/>
<rect x="1025" y="151" width="76" height="50" fill="#DBDDE7"/>
<rect x="1030" y="157" width="48" height="38" rx="5" fill="#252525"/>
<ellipse cx="1051.5" cy="176" rx="19.5" ry="19" fill="#454545"/>
<line x1="1064.14" y1="165.894" x2="1051.88" y2="176.178" stroke="black"/>
<line x1="1051.12" y1="176.821" x2="1038.86" y2="187.106" stroke="black"/>
<line x1="1062.11" y1="189.139" x2="1051.82" y2="176.883" stroke="black"/>
<line x1="1051.18" y1="176.117" x2="1040.89" y2="163.86" stroke="black"/>
<rect x="1235" y="4.38867" width="198" height="143" fill="#EBA6A9"/>
<path d="M1238 144.437V5.39272C1255.49 3.25687 1282.53 -3.32157 1286.62 5.39273C1290.72 14.107 1260.61 72.4586 1240.56 98.3025C1238.43 97.4481 1236.21 96.6365 1244.4 100.225C1252.59 103.813 1262.31 132.903 1266.15 147L1238 144.437Z" fill="#883677" stroke="#883677"/>
<path d="M1428 149.791V8.84157C1408.37 6.67646 1378.02 0.00790739 1373.42 8.84158C1368.83 17.6752 1402.63 76.8262 1425.13 103.024C1427.52 102.158 1430.01 101.335 1420.82 104.973C1411.63 108.61 1401.31 135.501 1397 149.791H1428Z" fill="#883677" stroke="#883677"/>
<path d="M1234 147.389V4.38867H1431V147.389H1234Z" stroke="#DBDDE7" stroke-width="8"/>
<path d="M1293 5.38867V144.389M1368 5.38867V144.389" stroke="#DBDDE7" stroke-width="8"/>
<rect x="1230" y="151" width="76" height="50" fill="#DBDDE7"/>
<rect x="1235" y="157" width="48" height="38" rx="5" fill="#252525"/>
<ellipse cx="1256.5" cy="176" rx="19.5" ry="19" fill="#454545"/>
<line x1="1270.79" y1="168.25" x2="1256.93" y2="176.25" stroke="black"/>
<line x1="1256.07" y1="176.75" x2="1242.21" y2="184.75" stroke="black"/>
<line x1="1264.75" y1="190.789" x2="1256.75" y2="176.933" stroke="black"/>
<line x1="1256.25" y1="176.067" x2="1248.25" y2="162.21" stroke="black"/>
<rect x="1440" y="4.38867" width="198" height="143" fill="#EBA6A9"/>
<path d="M1443 144.437V5.39272C1460.49 3.25687 1487.53 -3.32157 1491.62 5.39273C1495.72 14.107 1465.61 72.4586 1445.56 98.3025C1443.43 97.4481 1441.21 96.6365 1449.4 100.225C1457.59 103.813 1467.31 132.903 1471.15 147L1443 144.437Z" fill="#883677" stroke="#883677"/>
<path d="M1633 149.791V8.84157C1613.37 6.67646 1583.02 0.00790739 1578.42 8.84158C1573.83 17.6752 1607.63 76.8262 1630.13 103.024C1632.52 102.158 1635.01 101.335 1625.82 104.973C1616.63 108.61 1606.31 135.501 1602 149.791H1633Z" fill="#883677" stroke="#883677"/>
<path d="M1439 147.389V4.38867H1636V147.389H1439Z" stroke="#DBDDE7" stroke-width="8"/>
<path d="M1498 5.38867V144.389M1573 5.38867V144.389" stroke="#DBDDE7" stroke-width="8"/>
<rect x="1435" y="151" width="76" height="50" fill="#DBDDE7"/>
<rect x="1440" y="157" width="48" height="38" rx="5" fill="#252525"/>
<ellipse cx="1461.5" cy="176" rx="19.5" ry="19" fill="#454545"/>
<line x1="1477" y1="170.857" x2="1461.97" y2="176.329" stroke="black"/>
<line x1="1461.03" y1="176.671" x2="1446" y2="182.143" stroke="black"/>
<line x1="1467.14" y1="192.005" x2="1461.67" y2="176.97" stroke="black"/>
<line x1="1461.33" y1="176.03" x2="1455.86" y2="160.995" stroke="black"/>
<rect x="1645" y="4.38867" width="198" height="143" fill="#EBA6A9"/>
<path d="M1648 144.437V5.39272C1665.49 3.25687 1692.53 -3.32157 1696.62 5.39273C1700.72 14.107 1670.61 72.4586 1650.56 98.3025C1648.43 97.4481 1646.21 96.6365 1654.4 100.225C1662.59 103.813 1672.31 132.903 1676.15 147L1648 144.437Z" fill="#883677" stroke="#883677"/>
<path d="M1838 149.791V8.84157C1818.37 6.67646 1788.02 0.00790739 1783.42 8.84158C1778.83 17.6752 1812.63 76.8262 1835.13 103.024C1837.52 102.158 1840.01 101.335 1830.82 104.973C1821.63 108.61 1811.31 135.501 1807 149.791H1838Z" fill="#883677" stroke="#883677"/>
<path d="M1644 147.389V4.38867H1841V147.389H1644Z" stroke="#DBDDE7" stroke-width="8"/>
<path d="M1703 5.38867V144.389M1778 5.38867V144.389" stroke="#DBDDE7" stroke-width="8"/>
<rect x="1640" y="151" width="76" height="50" fill="#DBDDE7"/>
<rect x="1645" y="157" width="48" height="38" rx="5" fill="#252525"/>
<ellipse cx="1666.5" cy="176" rx="19.5" ry="19" fill="#454545"/>
<line x1="1682.75" y1="173.634" x2="1666.99" y2="176.413" stroke="black"/>
<line x1="1666.01" y1="176.587" x2="1650.25" y2="179.365" stroke="black"/>
<line x1="1669.37" y1="192.749" x2="1666.59" y2="176.992" stroke="black"/>
<line x1="1666.41" y1="176.007" x2="1663.63" y2="160.25" stroke="black"/>
</svg>
