<svg width="1920" height="383" viewBox="0 0 1920 383" fill="none" xmlns="http://www.w3.org/2000/svg">
<rect y="4" width="1920" height="377" fill="#364634"/>
<path d="M1013.02 4H1221.68L1290.5 382H0V265.5L1013.02 4Z" fill="#8D8D80"/>
<ellipse cx="1427.5" cy="241.389" rx="88.5" ry="88" fill="#4D5932"/>
<circle cx="1427.5" cy="292.889" r="88.5" fill="#4D5932"/>
<ellipse cx="1557" cy="261.389" rx="89" ry="88" fill="#4D5932"/>
<path d="M1733 307.5C1732.67 357.146 1692.62 385.59 1644.5 380.5C1595.9 380.5 1557 353.616 1557 307.5C1557 261.384 1596.4 224 1645 224C1693.6 224 1733 261.384 1733 307.5Z" fill="#4D5932"/>
<path d="M1239 303.5C1239 288.864 1250.86 277 1265.5 277H1668.5C1683.14 277 1695 288.864 1695 303.5V354.5C1695 369.136 1683.14 381 1668.5 381H1265.5C1250.86 381 1239 369.136 1239 354.5V303.5Z" fill="#4D5932"/>
<path d="M1221.5 4H1225.5L1271.5 228H1263.5L1221.5 4Z" fill="#4F4F4F"/>
<path d="M1379 297.5C1379 349.139 1334.69 382 1282.5 382C1228.18 386.316 1188.41 352.36 1190 297.5C1190 245.861 1232.31 204 1284.5 204C1336.69 204 1379 245.861 1379 297.5Z" fill="#4D5932"/>
<path d="M0 260.547L1013.5 0.5V5.5L0 269V260.547Z" fill="#4F4F4F"/>
</svg>
