<svg width="253" height="350" viewBox="0 0 253 350" fill="none" xmlns="http://www.w3.org/2000/svg">
<path d="M69.5 119.5V106.5" stroke="black"/>
<path d="M44.5 1H253V316H47L44.5 1Z" fill="#F4F2B8"/>
<path d="M44 0.746672L221 24.2084V349.389L44 316.518V0.746672Z" fill="#1E2329"/>
<rect y="90" width="33" height="59" fill="#343C45"/>
<rect x="8" y="108" width="4" height="4" fill="#F0F0F0"/>
<rect x="8" y="114" width="4" height="4" fill="#F0F0F0"/>
<rect x="8" y="120" width="4" height="4" fill="#F0F0F0"/>
<rect x="8" y="126" width="4" height="4" fill="#F0F0F0"/>
<rect x="14" y="108" width="4" height="4" fill="#F0F0F0"/>
<rect x="14" y="114" width="4" height="4" fill="#F0F0F0"/>
<rect x="14" y="120" width="4" height="4" fill="#F0F0F0"/>
<rect x="14" y="126" width="4" height="4" fill="#F0F0F0"/>
<rect x="20" y="108" width="4" height="4" fill="#F0F0F0"/>
<rect x="20" y="114" width="4" height="4" fill="#F0F0F0"/>
<rect x="20" y="120" width="4" height="4" fill="#F0F0F0"/>
<rect x="20" y="126" width="4" height="4" fill="#F0F0F0"/>
<circle cx="23" cy="139" r="4" fill="#9D9D9D"/>
<rect x="5" y="99" width="23" height="6" fill="#2B2F34"/>
<rect x="8" y="138" width="5" height="1" fill="#9D9D9D"/>
<path d="M10.0445 109.68H10.1025V111H9.94655V109.864L9.65855 109.954L9.62055 109.82L10.0445 109.68Z" fill="black"/>
<path d="M10.6125 116.618V116.754H10.4205V117H10.2645V116.754H9.60255V116.71L10.0365 115.68H10.1965L9.80055 116.618H10.2645V116.178H10.4205V116.618H10.6125Z" fill="black"/>
<path d="M9.63055 121.68H10.5125V121.726L9.84455 123H9.67455L10.3025 121.82H9.63055V121.68Z" fill="black"/>
<path d="M10.2885 127.712L10.1005 127.84L10.2885 127.968L10.2385 128.05L10.0345 127.952L10.0185 128.178H9.92255L9.90455 127.952L9.70055 128.05L9.65255 127.968L9.84055 127.84L9.65255 127.712L9.70055 127.628L9.90455 127.726L9.92255 127.5H10.0185L10.0345 127.726L10.2385 127.628L10.2885 127.712Z" fill="black"/>
<path d="M15.9505 110.86H16.5725V111H15.6545V110.96L16.1245 110.46C16.2099 110.371 16.2699 110.298 16.3045 110.242C16.3392 110.185 16.3565 110.126 16.3565 110.066C16.3565 109.991 16.3332 109.929 16.2865 109.878C16.2399 109.827 16.1785 109.802 16.1025 109.802C16.0225 109.802 15.9585 109.829 15.9105 109.882C15.8625 109.937 15.8385 110.001 15.8385 110.074C15.8385 110.111 15.8425 110.148 15.8505 110.184H15.6905C15.6812 110.151 15.6765 110.112 15.6765 110.068C15.6765 109.959 15.7165 109.863 15.7965 109.782C15.8765 109.699 15.9785 109.658 16.1025 109.658C16.2225 109.658 16.3219 109.697 16.4005 109.774C16.4792 109.85 16.5185 109.945 16.5185 110.058C16.5185 110.121 16.5059 110.179 16.4805 110.234C16.4565 110.286 16.4272 110.335 16.3925 110.38C16.3579 110.425 16.3079 110.483 16.2425 110.552L15.9505 110.86Z" fill="black"/>
<path d="M16.5625 116.582C16.5625 116.711 16.5165 116.817 16.4245 116.9C16.3325 116.981 16.2225 117.022 16.0945 117.022C15.9932 117.022 15.9032 116.998 15.8245 116.95C15.7472 116.901 15.6852 116.834 15.6385 116.75L15.7465 116.67C15.8372 116.809 15.9525 116.878 16.0925 116.878C16.1819 116.878 16.2552 116.851 16.3125 116.796C16.3712 116.741 16.4005 116.671 16.4005 116.584C16.4005 116.497 16.3712 116.43 16.3125 116.382C16.2552 116.334 16.1725 116.31 16.0645 116.31H15.7665V115.68H16.4885V115.82H15.9225V116.19C15.9892 116.179 16.0519 116.174 16.1105 116.174C16.2399 116.174 16.3472 116.209 16.4325 116.28C16.5192 116.351 16.5625 116.451 16.5625 116.582Z" fill="black"/>
<path d="M16.6005 122.664C16.6005 122.771 16.5579 122.857 16.4725 122.924C16.3885 122.989 16.2772 123.022 16.1385 123.022C15.9999 123.022 15.8872 122.989 15.8005 122.922C15.7152 122.855 15.6725 122.769 15.6725 122.662C15.6725 122.501 15.7772 122.383 15.9865 122.31C15.8185 122.233 15.7345 122.125 15.7345 121.986C15.7345 121.883 15.7725 121.803 15.8485 121.746C15.9272 121.687 16.0239 121.658 16.1385 121.658C16.2505 121.658 16.3452 121.687 16.4225 121.746C16.4999 121.803 16.5385 121.883 16.5385 121.986C16.5385 122.126 16.4545 122.233 16.2865 122.308C16.4959 122.385 16.6005 122.504 16.6005 122.664ZM16.1365 122.236C16.2245 122.201 16.2879 122.166 16.3265 122.13C16.3652 122.093 16.3845 122.047 16.3845 121.992C16.3845 121.931 16.3619 121.882 16.3165 121.846C16.2712 121.81 16.2119 121.792 16.1385 121.792C16.0639 121.792 16.0032 121.81 15.9565 121.846C15.9112 121.882 15.8885 121.931 15.8885 121.992C15.8885 122.045 15.9079 122.09 15.9465 122.126C15.9852 122.162 16.0485 122.199 16.1365 122.236ZM16.4425 122.658C16.4425 122.593 16.4185 122.54 16.3705 122.5C16.3239 122.46 16.2465 122.421 16.1385 122.382C16.0305 122.421 15.9519 122.461 15.9025 122.502C15.8545 122.542 15.8305 122.594 15.8305 122.658C15.8305 122.727 15.8579 122.783 15.9125 122.826C15.9672 122.867 16.0425 122.888 16.1385 122.888C16.2345 122.888 16.3092 122.867 16.3625 122.826C16.4159 122.785 16.4425 122.729 16.4425 122.658Z" fill="black"/>
<path d="M15.8125 128.828C15.7325 128.697 15.6925 128.531 15.6925 128.328C15.6925 128.125 15.7332 127.963 15.8145 127.842C15.8972 127.719 16.0179 127.658 16.1765 127.658C16.3365 127.658 16.4565 127.719 16.5365 127.842C16.6179 127.963 16.6585 128.125 16.6585 128.328C16.6585 128.531 16.6185 128.697 16.5385 128.828C16.4585 128.957 16.3379 129.022 16.1765 129.022C16.0152 129.022 15.8939 128.957 15.8125 128.828ZM16.4965 128.33C16.4965 127.978 16.3899 127.802 16.1765 127.802C15.9619 127.802 15.8545 127.978 15.8545 128.33C15.8545 128.503 15.8812 128.638 15.9345 128.734C15.9879 128.83 16.0685 128.878 16.1765 128.878C16.2845 128.878 16.3645 128.83 16.4165 128.734C16.4699 128.638 16.4965 128.503 16.4965 128.33Z" fill="black"/>
<path d="M22.5285 110.582C22.5285 110.711 22.4825 110.817 22.3905 110.9C22.2999 110.981 22.1899 111.022 22.0605 111.022C21.9632 111.022 21.8752 110.997 21.7965 110.948C21.7192 110.897 21.6579 110.831 21.6125 110.748L21.7225 110.67C21.8172 110.809 21.9292 110.878 22.0585 110.878C22.1492 110.878 22.2232 110.851 22.2805 110.798C22.3379 110.743 22.3665 110.672 22.3665 110.584C22.3665 110.499 22.3372 110.432 22.2785 110.384C22.2212 110.336 22.1392 110.312 22.0325 110.312H21.9025V110.266L22.2485 109.824H21.7025V109.68H22.4945V109.726L22.1445 110.176C22.2512 110.187 22.3419 110.228 22.4165 110.3C22.4912 110.371 22.5285 110.465 22.5285 110.582Z" fill="black"/>
<path d="M22.5605 116.578C22.5605 116.703 22.5165 116.809 22.4285 116.894C22.3419 116.979 22.2359 117.022 22.1105 117.022C21.9852 117.022 21.8785 116.979 21.7905 116.894C21.7039 116.809 21.6605 116.703 21.6605 116.576C21.6605 116.509 21.6725 116.449 21.6965 116.394C21.7259 116.334 21.7652 116.268 21.8145 116.196C21.8199 116.189 21.8252 116.182 21.8305 116.174C21.8372 116.165 21.8412 116.159 21.8425 116.156L22.1705 115.68H22.3565L22.0205 116.164C22.0525 116.152 22.0892 116.146 22.1305 116.146C22.2479 116.146 22.3485 116.188 22.4325 116.272C22.5179 116.356 22.5605 116.458 22.5605 116.578ZM22.4065 116.578C22.4065 116.495 22.3779 116.425 22.3205 116.366C22.2632 116.307 22.1932 116.278 22.1105 116.278C22.0279 116.278 21.9579 116.307 21.9005 116.366C21.8432 116.425 21.8145 116.495 21.8145 116.578C21.8145 116.662 21.8432 116.733 21.9005 116.792C21.9579 116.851 22.0279 116.88 22.1105 116.88C22.1932 116.88 22.2632 116.851 22.3205 116.792C22.3779 116.733 22.4065 116.662 22.4065 116.578Z" fill="black"/>
<path d="M22.5605 122.104C22.5605 122.155 22.5525 122.203 22.5365 122.25C22.5232 122.293 22.5052 122.331 22.4825 122.366C22.4612 122.402 22.4265 122.455 22.3785 122.524L22.0505 123H21.8665L22.2025 122.516C22.1705 122.528 22.1332 122.534 22.0905 122.534C21.9745 122.534 21.8739 122.492 21.7885 122.408C21.7032 122.324 21.6605 122.222 21.6605 122.102C21.6605 121.977 21.7045 121.871 21.7925 121.786C21.8805 121.701 21.9872 121.658 22.1125 121.658C22.2365 121.658 22.3419 121.701 22.4285 121.788C22.5165 121.873 22.5605 121.979 22.5605 122.104ZM22.4065 122.1C22.4065 122.015 22.3785 121.943 22.3225 121.886C22.2665 121.829 22.1965 121.8 22.1125 121.8C22.0285 121.8 21.9579 121.829 21.9005 121.886C21.8432 121.943 21.8145 122.015 21.8145 122.1C21.8145 122.184 21.8432 122.255 21.9005 122.314C21.9579 122.373 22.0285 122.402 22.1125 122.402C22.1965 122.402 22.2665 122.373 22.3225 122.314C22.3785 122.255 22.4065 122.184 22.4065 122.1Z" fill="black"/>
<path d="M22.6985 128.158H22.5045L22.4565 128.522H22.6525V128.654H22.4385L22.3905 129H22.2605L22.3065 128.654H21.9245L21.8765 129H21.7465L21.7925 128.654H21.6165V128.522H21.8105L21.8585 128.158H21.6645V128.026H21.8765L21.9225 127.68H22.0565L22.0085 128.026H22.3905L22.4365 127.68H22.5705L22.5225 128.026H22.6985V128.158ZM21.9425 128.522H22.3245L22.3725 128.158H21.9905L21.9425 128.522Z" fill="black"/>
<rect x="6" y="100" width="21" height="4" fill="#9D9D9D"/>
<path d="M9.968 102.706C9.968 102.794 9.936 102.865 9.872 102.92C9.80933 102.973 9.726 103 9.622 103H9.17V102.026H9.572C9.668 102.026 9.744 102.049 9.8 102.096C9.85733 102.143 9.886 102.205 9.886 102.284C9.886 102.365 9.852 102.428 9.784 102.472C9.90667 102.515 9.968 102.593 9.968 102.706ZM9.324 102.164V102.424H9.574C9.68067 102.424 9.734 102.38 9.734 102.292C9.734 102.207 9.68067 102.164 9.574 102.164H9.324ZM9.814 102.706C9.814 102.661 9.796 102.625 9.76 102.6C9.72533 102.573 9.676 102.56 9.612 102.56H9.324V102.864H9.612C9.67467 102.864 9.724 102.85 9.76 102.822C9.796 102.793 9.814 102.754 9.814 102.706ZM10.1879 102.512C10.1852 102.373 10.2346 102.253 10.3359 102.152C10.4386 102.051 10.5592 102.001 10.6979 102.004C10.8379 102.001 10.9586 102.051 11.0599 102.152C11.1612 102.253 11.2106 102.373 11.2079 102.512C11.2106 102.649 11.1606 102.769 11.0579 102.872C10.9552 102.973 10.8346 103.023 10.6959 103.02C10.5572 103.023 10.4372 102.973 10.3359 102.872C10.2346 102.769 10.1852 102.649 10.1879 102.512ZM11.0499 102.514C11.0499 102.41 11.0159 102.323 10.9479 102.252C10.8812 102.181 10.7979 102.146 10.6979 102.146C10.5979 102.146 10.5139 102.181 10.4459 102.252C10.3792 102.321 10.3459 102.409 10.3459 102.514C10.3459 102.617 10.3792 102.703 10.4459 102.774C10.5139 102.843 10.5972 102.878 10.6959 102.878C10.7946 102.878 10.8779 102.843 10.9459 102.772C11.0152 102.701 11.0499 102.615 11.0499 102.514ZM11.4086 102.512C11.4059 102.373 11.4553 102.253 11.5566 102.152C11.6579 102.051 11.7786 102.001 11.9186 102.004C12.0026 102.004 12.0793 102.023 12.1486 102.06C12.2179 102.097 12.2753 102.149 12.3206 102.216L12.2106 102.304C12.1333 102.199 12.0366 102.146 11.9206 102.146C11.8206 102.146 11.7366 102.182 11.6686 102.254C11.6006 102.325 11.5666 102.411 11.5666 102.512C11.5666 102.615 11.6006 102.702 11.6686 102.774C11.7366 102.845 11.8206 102.88 11.9206 102.88C12.0353 102.88 12.1313 102.828 12.2086 102.724L12.3186 102.81C12.2226 102.951 12.0893 103.022 11.9186 103.022C11.7773 103.022 11.6566 102.973 11.5566 102.874C11.4579 102.774 11.4086 102.653 11.4086 102.512ZM12.5802 103V102.026H13.3582V103H13.2022V102.164H12.7342V103H12.5802ZM13.6254 102.512C13.6227 102.373 13.6721 102.253 13.7734 102.152C13.8761 102.051 13.9967 102.001 14.1354 102.004C14.2754 102.001 14.3961 102.051 14.4974 102.152C14.5987 102.253 14.6481 102.373 14.6454 102.512C14.6481 102.649 14.5981 102.769 14.4954 102.872C14.3927 102.973 14.2721 103.023 14.1334 103.02C13.9947 103.023 13.8747 102.973 13.7734 102.872C13.6721 102.769 13.6227 102.649 13.6254 102.512ZM14.4874 102.514C14.4874 102.41 14.4534 102.323 14.3854 102.252C14.3187 102.181 14.2354 102.146 14.1354 102.146C14.0354 102.146 13.9514 102.181 13.8834 102.252C13.8167 102.321 13.7834 102.409 13.7834 102.514C13.7834 102.617 13.8167 102.703 13.8834 102.774C13.9514 102.843 14.0347 102.878 14.1334 102.878C14.2321 102.878 14.3154 102.843 14.3834 102.772C14.4527 102.701 14.4874 102.615 14.4874 102.514ZM14.9161 103V102.004H14.9721L15.4341 102.552L15.8941 102.004H15.9481V103H15.7941V102.342L15.4621 102.738H15.4021L15.0701 102.342V103H14.9161ZM17.0352 102.004H17.0912V103H16.9372V102.312L16.3432 103.022H16.2872V102.026H16.4412V102.716L17.0352 102.004ZM17.4298 103V102.026H17.5838V102.414H18.0618V102.026H18.2158V103H18.0618V102.55H17.5838V103H17.4298ZM19.2828 102.4V103H19.1388V102.874C19.0641 102.973 18.9548 103.022 18.8108 103.022C18.7095 103.022 18.6275 102.997 18.5648 102.948C18.5021 102.897 18.4708 102.831 18.4708 102.748C18.4708 102.665 18.5028 102.599 18.5668 102.55C18.6308 102.501 18.7155 102.476 18.8208 102.476H19.1288V102.392C19.1288 102.313 19.1075 102.253 19.0648 102.21C19.0235 102.167 18.9661 102.146 18.8928 102.146C18.7835 102.146 18.6888 102.198 18.6088 102.302L18.5068 102.218C18.5935 102.075 18.7255 102.004 18.9028 102.004C19.0201 102.004 19.1128 102.039 19.1808 102.108C19.2488 102.176 19.2828 102.273 19.2828 102.4ZM19.1288 102.626V102.602H18.8388C18.6988 102.602 18.6288 102.648 18.6288 102.74C18.6288 102.788 18.6475 102.826 18.6848 102.854C18.7235 102.881 18.7721 102.894 18.8308 102.894C18.9121 102.894 18.9821 102.868 19.0408 102.816C19.0995 102.764 19.1288 102.701 19.1288 102.626ZM19.6095 103V102.026H19.7635V102.414H20.2415V102.026H20.3955V103H20.2415V102.55H19.7635V103H19.6095ZM21.4805 102.004H21.5365V103H21.3825V102.312L20.7885 103.022H20.7325V102.026H20.8865V102.716L21.4805 102.004ZM22.7351 102.56H21.9651C21.9744 102.656 22.0124 102.733 22.0791 102.792C22.1457 102.851 22.2271 102.88 22.3231 102.88C22.4337 102.88 22.5331 102.836 22.6211 102.748L22.7111 102.852C22.6017 102.965 22.4717 103.022 22.3211 103.022C22.1757 103.022 22.0531 102.973 21.9531 102.876C21.8544 102.777 21.8051 102.657 21.8051 102.514C21.8051 102.373 21.8531 102.253 21.9491 102.154C22.0464 102.054 22.1644 102.004 22.3031 102.004C22.4297 102.004 22.5351 102.045 22.6191 102.128C22.7044 102.211 22.7471 102.316 22.7471 102.444C22.7471 102.481 22.7431 102.52 22.7351 102.56ZM21.9711 102.424H22.5891C22.5877 102.339 22.5597 102.271 22.5051 102.22C22.4504 102.169 22.3817 102.144 22.2991 102.144C22.2177 102.144 22.1471 102.17 22.0871 102.222C22.0271 102.273 21.9884 102.34 21.9711 102.424Z" fill="white"/>
<path d="M63 71L113 76.9661V103L63 96.4915V71Z" fill="#A5A676"/>
<path d="M63 96H68V109L63 107.5V96Z" fill="#A5A676"/>
<path d="M69 96H74V110L69 108.385V96Z" fill="#A5A676"/>
<path d="M79 98H84V113L79 111.269V98Z" fill="#A5A676"/>
<path d="M95 94H100V113L95 110.808V94Z" fill="#A5A676"/>
<path d="M102 101H107V119L102 116.923V101Z" fill="#A5A676"/>
<rect x="194" y="144" width="4" height="93" fill="#161A1F"/>
</svg>
