<svg width="258" height="151" viewBox="0 0 258 151" fill="none" xmlns="http://www.w3.org/2000/svg">
<rect x="3" y="2" width="122" height="145" fill="#EBA6A9"/>
<path d="M7.35838 7.49827C7.57398 4.36294 10.1778 2 13.3205 2H57C60.3137 2 63 4.68629 63 8V141C63 144.314 60.329 147 57.0153 147C44.4916 147 15.9983 147 7.74617 147C-1.68233 147 5.53822 33.9679 7.35838 7.49827Z" fill="#883677"/>
<path d="M4 147V4H125V147H4Z" stroke="#DBDDE7" stroke-width="8"/>
<path d="M63 6V41.8856M63 145V41.8856M63 41.8856H7" stroke="#DBDDE7" stroke-width="8"/>
<rect x="3" y="2" width="122" height="145" fill="#EBA6A9"/>
<path d="M7.35838 7.49827C7.57398 4.36294 10.1778 2 13.3205 2H57C60.3137 2 63 4.68629 63 8V141C63 144.314 60.329 147 57.0153 147C44.4916 147 15.9983 147 7.74617 147C-1.68233 147 5.53822 33.9679 7.35838 7.49827Z" fill="#883677"/>
<path d="M4 147V4H125V147H4Z" stroke="#DBDDE7" stroke-width="8"/>
<path d="M63 6V41.8856M63 145V41.8856M63 41.8856H7" stroke="#DBDDE7" stroke-width="8"/>
<rect x="132" y="2" width="122" height="145" fill="#EBA6A9"/>
<path d="M136.358 7.49827C136.574 4.36294 139.178 2 142.321 2H186C189.314 2 192 4.68629 192 8V141C192 144.314 189.329 147 186.015 147C173.492 147 144.998 147 136.746 147C127.318 147 134.538 33.9679 136.358 7.49827Z" fill="#883677"/>
<path d="M133 147V4H254V147H133Z" stroke="#DBDDE7" stroke-width="8"/>
<path d="M192 6V41.8856M192 145V41.8856M192 41.8856H136" stroke="#DBDDE7" stroke-width="8"/>
<rect x="132" y="2" width="122" height="145" fill="#A6C4C8"/>
<path d="M136.358 7.49827C136.574 4.36294 139.178 2 142.321 2H186C189.314 2 192 4.68629 192 8V141C192 144.314 189.329 147 186.015 147C173.492 147 144.998 147 136.746 147C127.318 147 134.538 33.9679 136.358 7.49827Z" fill="#368888"/>
<path d="M133 147V4H254V147H133Z" stroke="#DBDDE7" stroke-width="8"/>
<path d="M192 6V41.8856M192 145V41.8856M192 41.8856H136" stroke="#DBDDE7" stroke-width="8"/>
</svg>
