<svg width="412" height="151" viewBox="0 0 412 151" fill="none" xmlns="http://www.w3.org/2000/svg">
<rect x="4" y="2.61145" width="202" height="142" fill="#9DA1FF"/>
<path d="M200 148.611V7.47025C189.685 4.27701 165.446 -0.576719 151.006 5.5543C136.565 11.6853 177.652 103.48 200 148.611Z" fill="#883677" stroke="#883677"/>
<path d="M2 146V6.79224C12.3146 3.64274 36.5538 -1.1445 50.9942 4.90254C65.4346 10.9496 24.3482 101.487 2 146Z" fill="#883677" stroke="#883677"/>
<path d="M4 147V4H202V147H4Z" stroke="#DBDDE7" stroke-width="8"/>
<path d="M63 7V145M139 7V145" stroke="#DBDDE7" stroke-width="8"/>
<rect x="210" y="2.61145" width="202" height="142" fill="#5A5DB5"/>
<path d="M406 148.611V7.47025C395.685 4.27701 371.446 -0.576719 357.006 5.5543C342.565 11.6853 383.652 103.48 406 148.611Z" fill="#511C46" stroke="#511C46"/>
<path d="M208 146V6.79224C218.315 3.64274 242.554 -1.1445 256.994 4.90254C271.435 10.9496 230.348 101.487 208 146Z" fill="#511C46" stroke="#511C46"/>
<path d="M210 147V4H408V147H210Z" stroke="#DBDDE7" stroke-width="8"/>
<path d="M269 7V145M345 7V145" stroke="#DBDDE7" stroke-width="8"/>
</svg>
